<svg xmlns="http://www.w3.org/2000/svg" width="165.232" height="55.5" viewBox="0 0 165.232 55.5">
  <g id="logo" transform="translate(-1.997 -2)">
    <g id="Layer_1" data-name="Layer 1" transform="translate(2.499 2.5)">
      <path id="Path_1" data-name="Path 1" d="M18.884,2.5c.221,0,.391.218.486.664a4.517,4.517,0,0,1-.035,1.658,6.18,6.18,0,0,1-.656,1.9,10.811,10.811,0,0,0-.933,1.14,28.186,28.186,0,0,0-1.969,3.72,32.71,32.71,0,0,0-2.213,6.462q1.382.345,3.9,1.243T21.82,20.7a39.671,39.671,0,0,0,4.387.933,23.565,23.565,0,0,0,5.457.207A33.6,33.6,0,0,0,37.744,20.8c.414-.093.622,0,.622.266a1.122,1.122,0,0,1-.9.967,43.779,43.779,0,0,1-6.459,1.209,23.2,23.2,0,0,1-5.665-.069q-2.657-.38-4.352-.76a43.089,43.089,0,0,1-4.251-1.243c-1.7-.574-2.9-.957-3.592-1.14a54.151,54.151,0,0,0-.76,9.326,57.208,57.208,0,0,0,.311,7.288,37.554,37.554,0,0,0,1.451,6.908A21.522,21.522,0,0,0,16.913,49.5a11.218,11.218,0,0,0,4.559,3.8,12.776,12.776,0,0,0,6.6,1.036,27.886,27.886,0,0,0,9.087-2.811,69.091,69.091,0,0,0,11.778-7.357c.691,0,1.036.114,1.036.345A65.958,65.958,0,0,1,39.056,52.8a30.332,30.332,0,0,1-9.222,3.834,16.005,16.005,0,0,1-7.426-.138,12.777,12.777,0,0,1-5.8-3.38,20.942,20.942,0,0,1-4.076-6.079,33.563,33.563,0,0,1-2.458-8.13,54.8,54.8,0,0,1-.8-9.533,49.4,49.4,0,0,1,.975-9.948,16.386,16.386,0,0,0-6.355.414q-1.243.266-1.382-.691c-.09-.691.266-1.15,1.105-1.382a17.27,17.27,0,0,1,7.046-.345,38.664,38.664,0,0,1,1.86-5.561,29.311,29.311,0,0,1,2.142-4.214Q15.7,6.026,16.634,4.814a19.625,19.625,0,0,1,1.485-1.762l.622-.484a.2.2,0,0,1,.143-.069Z" transform="translate(-2.499 -2.5)" fill="#373737" stroke="#373737" stroke-miterlimit="10" stroke-width="1"/>
      <path id="Path_2" data-name="Path 2" d="M204.393,152.1a15.238,15.238,0,0,1-3.869-3.109,29.966,29.966,0,0,1-3.143-3.9,22.19,22.19,0,0,0-2.591-3.247,3.787,3.787,0,0,0-2.487-1.416,4.878,4.878,0,0,0-3.074,1.692,25.572,25.572,0,0,0-3.188,3.7,25.741,25.741,0,0,1-3.188,3.7q-1.762,1.7-3.074,1.623-2.694-.141-4.421-3.627a13.233,13.233,0,0,1-1.594-6.425q.141-2.923.967-3.42c.414,0,.747.577,1,1.727s.47,2.407.656,3.765a11.51,11.51,0,0,0,1.14,3.72,2.552,2.552,0,0,0,2.245,1.693q.964,0,2.487-1.623a34.238,34.238,0,0,0,2.923-3.627,19.518,19.518,0,0,1,3.385-3.661,5.913,5.913,0,0,1,3.7-1.658,5.314,5.314,0,0,1,3.661,1.52A12.222,12.222,0,0,1,198.583,143a37.664,37.664,0,0,0,2.625,4.318,12.847,12.847,0,0,0,3.42,3.523,18.382,18.382,0,0,0,8.462,2.729,47.417,47.417,0,0,0,11.053-.266q5.906-.8,12.607-2.142t13.885-2.591q7.174-1.243,14.058-1.934a65.928,65.928,0,0,1,13.954.1,44.518,44.518,0,0,1,12.815,3.281,1.621,1.621,0,0,1,.967,1.14.946.946,0,0,1-.414,1.063,1.765,1.765,0,0,1-1.594-.069,42.63,42.63,0,0,0-12.366-3.558,62.084,62.084,0,0,0-13.367-.414q-6.6.531-13.471,1.623t-13.471,2.349q-6.6,1.243-12.538,2a56.44,56.44,0,0,1-11.425.345A24.345,24.345,0,0,1,204.393,152.1Z" transform="translate(-128.252 -101.748)" fill="#373737" stroke="#373737" stroke-miterlimit="10" stroke-width="1"/>
    </g>
  </g>
</svg>
