<svg xmlns="http://www.w3.org/2000/svg" width="57" height="46.984" viewBox="0 0 57 46.984">
  <g id="contextapi" transform="translate(-264 -705.031)">
    <text id="Context_API" data-name="Context API" transform="translate(264 749.016)" fill="#61dafb" font-size="10" font-family="NexaBold, Nexa"><tspan x="0" y="0">Context API</tspan></text>
    <g id="react" transform="translate(271.327 705.031)">
      <path id="Path_265" data-name="Path 265" d="M215.382,95.673c0-2.629-3.292-5.12-8.339-6.665,1.165-5.144.647-9.237-1.634-10.547a3.546,3.546,0,0,0-1.812-.453v1.8a1.873,1.873,0,0,1,.922.21c1.1.631,1.577,3.033,1.205,6.123-.089.76-.235,1.561-.413,2.378a39.2,39.2,0,0,0-5.136-.882,39.458,39.458,0,0,0-3.365-4.044c2.637-2.451,5.112-3.794,6.794-3.794V78c-2.224,0-5.136,1.585-8.08,4.335-2.944-2.734-5.856-4.3-8.08-4.3v1.8c1.674,0,4.158,1.335,6.794,3.769a38.2,38.2,0,0,0-3.341,4.036,37.773,37.773,0,0,0-5.144.89c-.186-.809-.324-1.593-.421-2.346-.38-3.09.089-5.492,1.181-6.131a1.8,1.8,0,0,1,.93-.21v-1.8a3.607,3.607,0,0,0-1.828.453c-2.273,1.31-2.782,5.4-1.61,10.523-5.031,1.553-8.307,4.036-8.307,6.657s3.292,5.12,8.339,6.665c-1.165,5.144-.647,9.237,1.634,10.547a3.556,3.556,0,0,0,1.82.453c2.224,0,5.136-1.585,8.08-4.335,2.944,2.734,5.856,4.3,8.08,4.3a3.607,3.607,0,0,0,1.828-.453c2.273-1.31,2.782-5.4,1.61-10.523,5.015-1.545,8.291-4.036,8.291-6.657Zm-10.531-5.4c-.3,1.043-.671,2.119-1.092,3.195-.332-.647-.679-1.294-1.06-1.941s-.768-1.278-1.165-1.893C202.683,89.809,203.792,90.02,204.851,90.278Zm-3.7,8.614c-.631,1.092-1.278,2.127-1.949,3.09-1.205.105-2.427.162-3.656.162s-2.443-.057-3.64-.154q-1.007-1.444-1.957-3.074-.922-1.589-1.682-3.219c.5-1.084,1.068-2.168,1.674-3.227.631-1.092,1.278-2.127,1.949-3.09,1.205-.105,2.427-.162,3.656-.162s2.443.057,3.64.154q1.007,1.444,1.957,3.074.922,1.589,1.682,3.219C202.311,96.749,201.753,97.833,201.147,98.893Zm2.613-1.052c.437,1.084.809,2.168,1.116,3.219-1.06.259-2.176.477-3.332.647.4-.623.793-1.262,1.165-1.917S203.428,98.488,203.759,97.841Zm-8.2,8.63a33.342,33.342,0,0,1-2.249-2.588c.728.032,1.472.057,2.224.057s1.513-.016,2.249-.057A31.568,31.568,0,0,1,195.557,106.472Zm-6.018-4.764c-1.149-.17-2.257-.38-3.316-.639.3-1.043.671-2.119,1.092-3.195.332.647.679,1.294,1.06,1.941S189.143,101.093,189.54,101.708Zm5.977-16.832a33.342,33.342,0,0,1,2.249,2.588c-.728-.032-1.472-.057-2.224-.057s-1.513.016-2.249.057A31.571,31.571,0,0,1,195.517,84.875Zm-5.986,4.764c-.4.623-.793,1.262-1.165,1.917s-.72,1.294-1.052,1.941c-.437-1.084-.809-2.168-1.116-3.219C187.259,90.028,188.375,89.809,189.531,89.639Zm-7.32,10.127c-2.863-1.221-4.716-2.823-4.716-4.093s1.852-2.88,4.716-4.093c.7-.3,1.456-.566,2.241-.817a38.846,38.846,0,0,0,1.82,4.926,38.3,38.3,0,0,0-1.8,4.9C183.675,100.341,182.915,100.066,182.211,99.766Zm4.352,11.559c-1.1-.631-1.577-3.033-1.205-6.123.089-.76.235-1.561.413-2.378a39.2,39.2,0,0,0,5.136.882,39.453,39.453,0,0,0,3.365,4.044c-2.637,2.451-5.112,3.794-6.794,3.794A1.93,1.93,0,0,1,186.563,111.325Zm19.186-6.163c.38,3.09-.089,5.492-1.181,6.131a1.8,1.8,0,0,1-.93.21c-1.674,0-4.158-1.335-6.794-3.769a38.2,38.2,0,0,0,3.341-4.036,37.771,37.771,0,0,0,5.144-.89A22.639,22.639,0,0,1,205.749,105.161Zm3.114-5.4c-.7.3-1.456.566-2.241.817a38.846,38.846,0,0,0-1.82-4.926,38.3,38.3,0,0,0,1.8-4.9c.8.251,1.561.526,2.273.825,2.863,1.221,4.716,2.823,4.716,4.093S211.726,98.553,208.863,99.766Z" transform="translate(-175.7 -78)" fill="#61dafb"/>
      <ellipse id="Ellipse_21" data-name="Ellipse 21" cx="3.696" cy="3.696" rx="3.696" ry="3.696" transform="translate(16.137 13.977)" fill="#61dafb"/>
    </g>
  </g>
</svg>
