<svg xmlns="http://www.w3.org/2000/svg" width="23.347" height="23.347" viewBox="0 0 23.347 23.347">
  <path id="github" d="M11.674,0A11.821,11.821,0,0,0,0,11.969,11.938,11.938,0,0,0,7.982,23.324c.584.1.8-.254.8-.569,0-.284-.015-1.227-.015-2.229-2.933.554-3.692-.733-3.925-1.406a4.351,4.351,0,0,0-1.2-1.691c-.409-.224-.992-.778-.015-.793a2.338,2.338,0,0,1,1.795,1.227,2.46,2.46,0,0,0,3.4.987,2.542,2.542,0,0,1,.744-1.6c-2.6-.3-5.311-1.332-5.311-5.91a4.724,4.724,0,0,1,1.2-3.217,4.4,4.4,0,0,1,.117-3.172s.978-.314,3.21,1.227a10.744,10.744,0,0,1,5.837,0c2.233-1.556,3.21-1.227,3.21-1.227a4.4,4.4,0,0,1,.117,3.172,4.7,4.7,0,0,1,1.2,3.217c0,4.593-2.729,5.61-5.326,5.91a2.873,2.873,0,0,1,.788,2.214c0,1.6-.015,2.887-.015,3.291,0,.314.219.688.8.569a11.966,11.966,0,0,0,7.953-11.355A11.821,11.821,0,0,0,11.674,0Z" fill="#fefefe" fill-rule="evenodd"/>
</svg>
