<svg id="linkedin" xmlns="http://www.w3.org/2000/svg" width="17.253" height="17.253" viewBox="0 0 17.253 17.253">
  <path id="Path_261" data-name="Path 261" d="M19.635,19.382h0V13.054c0-3.1-.666-5.48-4.285-5.48a3.757,3.757,0,0,0-3.384,1.86h-.05V7.863H8.489V19.381h3.573v-5.7c0-1.5.285-2.954,2.144-2.954,1.832,0,1.86,1.714,1.86,3.05v5.608Z" transform="translate(-2.387 -2.129)" fill="#fefefe"/>
  <path id="Path_262" data-name="Path 262" d="M.4,7.977H3.973V19.5H.4Z" transform="translate(-0.111 -2.243)" fill="#fefefe"/>
  <path id="Path_263" data-name="Path 263" d="M2.072,0A2.082,2.082,0,1,0,4.144,2.072,2.072,2.072,0,0,0,2.072,0Z" fill="#fefefe"/>
</svg>
