<svg xmlns="http://www.w3.org/2000/svg" width="58.402" height="35.37" viewBox="0 0 58.402 35.37">
  <g id="redux-saga" transform="translate(-1.628 -1)">
    <path id="Path_267" data-name="Path 267" d="M35.108,14.536a2.412,2.412,0,0,1,3.622-2.088,20.809,20.809,0,0,1,7.15-1.222c6.777,0,12.59,3.027,14.555,7.383a1.286,1.286,0,0,1-2.066.879c-1.611-3.5-6.7-6.018-12.488-6.018a18.756,18.756,0,0,0-5.951.935,2.413,2.413,0,1,1-4.822.131Zm27.1,8.977A2.413,2.413,0,1,0,57.9,25.006a9.9,9.9,0,0,1-3.5,3.12,17.683,17.683,0,0,1-8.518,2.062,18.115,18.115,0,0,1-7.51-1.55,11.567,11.567,0,0,1-3.663-2.549c-.615-.358-2.038.785-1.522,1.656,2.787,2.9,7.513,4.687,12.694,4.687a19.945,19.945,0,0,0,9.616-2.349,11.932,11.932,0,0,0,4.481-4.166A2.414,2.414,0,0,0,62.206,23.512Z" transform="translate(-2.176 -0.708)" fill="#89d96d"/>
    <path id="Path_268" data-name="Path 268" d="M13.549,27.332A18.515,18.515,0,0,1,10.1,16.107,19.028,19.028,0,0,1,13.039,5.593C15.025,2.631,17.711,1,20.6,1a9,9,0,0,1,7.075,3.909,17.948,17.948,0,0,1,3.332,9.146A23.254,23.254,0,0,0,28.6,12.9c-.934-5.591-4.225-9.654-8-9.654-2.119,0-4.144,1.278-5.7,3.6a16.779,16.779,0,0,0-2.557,9.264,16.4,16.4,0,0,0,3.081,9.982,2.413,2.413,0,1,1-1.877,1.243Zm17.167-11.9a18.409,18.409,0,0,0-11.972-2.543,2.413,2.413,0,1,0,.682,2.157,16.3,16.3,0,0,1,10.167,2.33c4.139,2.389,7.067,6.1,7.639,9.538a14.948,14.948,0,0,0,2.336.751c-.22-4.468-3.648-9.229-8.853-12.232Zm.595,18.6a15.075,15.075,0,0,1-7.061-.975,23.1,23.1,0,0,1-2.208,1.509,18.9,18.9,0,0,0,7.774,1.8,14.122,14.122,0,0,0,1.78-.11,9.134,9.134,0,0,0,6.736-3.821,20.735,20.735,0,0,1-2.28-.693A7.311,7.311,0,0,1,31.31,34.033Zm-2.4-8.816a2.413,2.413,0,1,0-2-1.029,13.3,13.3,0,0,1-1.99,3.261,18.47,18.47,0,0,1-5.047,4.23,17.208,17.208,0,0,1-8.454,2.446c-.285,0-.568-.009-.847-.028C7.779,33.911,5.66,32.8,4.6,30.962c-1.878-3.254-.006-8.148,4.362-11.748a23.074,23.074,0,0,1-.2-2.414l-.124-.172a17.867,17.867,0,0,0-6.161,7.431,8.978,8.978,0,0,0,.175,8.025c1.446,2.5,4.2,4.015,7.76,4.254q.49.032.99.033a19.492,19.492,0,0,0,9.583-2.747,18.7,18.7,0,0,0,7.917-8.407Z" fill="#999"/>
  </g>
</svg>
