<svg xmlns="http://www.w3.org/2000/svg" width="37.224" height="35.339" viewBox="0 0 37.224 35.339">
  <path id="redux" d="M25.792,24.68a2.661,2.661,0,0,0-.284-5.306h-.095a2.65,2.65,0,0,0-2.558,2.747,2.72,2.72,0,0,0,.758,1.753,16.944,16.944,0,0,1-7.769,7.437,12.81,12.81,0,0,1-7.721,1.469,6.585,6.585,0,0,1-4.832-2.8,6.958,6.958,0,0,1-.379-7.342,11.151,11.151,0,0,1,3.221-3.79c-.189-.616-.474-1.658-.616-2.416C-1.35,21.412-.64,28.138,1.445,31.312c1.563,2.369,4.737,3.837,8.242,3.837a11.652,11.652,0,0,0,2.842-.332A18.179,18.179,0,0,0,25.792,24.68Zm8.337-5.874a19.236,19.236,0,0,0-14.969-6.537H18.4a2.6,2.6,0,0,0-2.321-1.421h-.095a2.654,2.654,0,0,0,.095,5.306h.095A2.668,2.668,0,0,0,18.5,14.543h.853a18.054,18.054,0,0,1,10.09,3.079,12.69,12.69,0,0,1,5.021,6.063,6.566,6.566,0,0,1-.095,5.59,6.954,6.954,0,0,1-6.49,3.884,12.115,12.115,0,0,1-4.642-.995c-.521.474-1.468,1.232-2.132,1.705a14.624,14.624,0,0,0,6.111,1.468,10.283,10.283,0,0,0,9.19-5.021c1.374-2.748,1.279-7.485-2.274-11.511ZM10.066,25.485a2.661,2.661,0,0,0,2.653,2.558h.095a2.654,2.654,0,0,0-.095-5.305h-.095a.807.807,0,0,0-.332.047A17.356,17.356,0,0,1,9.829,12.269a12.707,12.707,0,0,1,2.795-7.343A8.216,8.216,0,0,1,18.45,2.274c5.021-.095,7.153,6.158,7.295,8.669.616.142,1.658.474,2.369.711C27.545,3.979,22.808,0,18.261,0,14,0,10.066,3.079,8.5,7.627,6.324,13.69,7.745,19.517,10.4,24.112a2.129,2.129,0,0,0-.332,1.374Z" transform="translate(0)" fill="#764abc"/>
</svg>
