<svg xmlns="http://www.w3.org/2000/svg" width="684.898" height="603.951" viewBox="0 0 684.898 603.951">
  <g id="rocket" transform="translate(-16.556 -48.431)">
    <g id="freepik--Space--inject-1--inject-111" transform="translate(16.56 48.431)">
      <path id="Path_3" data-name="Path 3" d="M233.807,96.845A557.991,557.991,0,0,0,65.865,243C42.7,273.338,30.306,167.641,54.041,126.514S149.04,51.1,220.259,51.1,281.555,69.954,233.807,96.845Z" transform="translate(-5.167 -47.199)" fill="#263238"/>
      <path id="Path_4" data-name="Path 4" d="M88.949,563.481C-25.209,503.705,8.756,355.07,100.232,247.488,252.376,68.54,458.3-7.386,587.881,93.473s132.208,346.378,87.135,417.993S529.274,615.555,354.2,615.555,143.946,592.273,88.949,563.481Z" transform="translate(-16.559 -48.431)" fill="#263238"/>
    </g>
    <g id="freepik--Smoke--inject-1--inject-111" transform="translate(16.556 255.95)">
      <path id="Path_5" data-name="Path 5" d="M688.258,415.7a143.392,143.392,0,0,1-9.982,24.524q-1.578,3.011-3.274,5.671-2.192,3.508-4.6,6.884c-1.9,2.7-3.9,5.364-6.007,7.951q-4.6,5.744-9.821,11.108a165.97,165.97,0,0,1-15.4,13.957c-23.384,18.722-53.4,33.133-90.965,43.509,0,0-59.922,18.751-189.193,18.751S157.51,529.3,157.51,529.3c-1.462-.439-2.748-.892-4.092-1.359-20.753-7.088-36.991-15.507-54.368-24.641l-10.231-5.349c-21.674-11.458-38-26.073-49.691-43.056a122.328,122.328,0,0,1-8.477-14.411c-16.9-33.892-17.83-75.019-6.913-117.564q1.1-4.385,2.4-8.769a305.874,305.874,0,0,1,15.024-40.177c.175-.409.365-.8.555-1.213h0l.658.453a17.341,17.341,0,0,1,1.462,1.111c.438.38.979.745,1.462,1.125a55.394,55.394,0,0,1,6.665,6.284c.775.862,1.462,1.754,2.265,2.66.409.512.818,1.038,1.213,1.578l.95,1.315q.585.833,1.14,1.71l.965,1.549c.263.438.526.892.775,1.345.088.146.175.292.248.438.263.468.512.95.76,1.461s.555,1.1.818,1.652.453.965.658,1.462c.541,1.213,1.023,2.455,1.462,3.712.219.57.409,1.155.6,1.754v.117c.175.541.336,1.111.5,1.666l.351,1.315.219.877c.234.979.438,1.988.628,2.923a8.26,8.26,0,0,0,.19,1.155c.058.395.132.818.19,1.242s.132,1.14.19,1.71.117,1.228.175,1.856c.088,1.315.132,2.631.132,3.975A55.669,55.669,0,0,1,61.3,342.49a56.645,56.645,0,0,1-10.07,14.98,39.242,39.242,0,0,1,19.2,13.621,56.122,56.122,0,0,1,65.271.833c.716.526,1.461,1.067,2.09,1.622a55.539,55.539,0,0,1,7.527,7.424c.57.672,1.111,1.374,1.652,2.075q1.184,1.578,2.28,3.245a52.948,52.948,0,0,1,2.675,4.589c.409.789.789,1.578,1.169,2.4a42.945,42.945,0,0,1,1.988,4.969,54.208,54.208,0,0,1,2.923,17.538,55.16,55.16,0,0,1-.395,6.621,53.813,53.813,0,0,1-3.084,12.481c-.161.395-.307.789-.468,1.169h0a24.845,24.845,0,0,1,16.427,6.591,39.563,39.563,0,0,1,18.21-10.713h0l1.257-.322a27.022,27.022,0,0,1,3.785-.7c.453-.088.906-.132,1.359-.175s1.272-.117,1.915-.146,1.388,0,2.09,0a39.461,39.461,0,0,1,28.1,11.692,38.511,38.511,0,0,1,10.084,17.9,56.881,56.881,0,0,1,29.347-8.068c31.306,0,56.707,25.036,56.707,55.932v.848a24.919,24.919,0,0,1,36.538,11.02,24.846,24.846,0,0,1,39.461-8.842,48.208,48.208,0,0,1-.336-5.481A47.279,47.279,0,0,1,412.4,472.609l.877-.731c.818-.819,1.681-1.593,2.558-2.353.585-.5,1.184-.979,1.783-1.462l.935-.7c.614-.453,1.257-.906,1.9-1.33a45.763,45.763,0,0,1,3.99-2.4l1.038-.541c.7-.351,1.462-.687,2.119-1.008s1.462-.628,2.178-.906,1.461-.555,2.221-.8a49.107,49.107,0,0,1,47.178,9.061c1.111.935,2.163,1.915,3.186,2.923a48.572,48.572,0,0,1,5.451,6.679,24.844,24.844,0,0,1,10.479-4.882h0a50.9,50.9,0,0,1-1.389-5.378c-.117-.614-.234-1.228-.336-1.856a48,48,0,0,1-.6-7.585,47.493,47.493,0,0,1,.395-6.153q.161-1.286.395-2.587a46.081,46.081,0,0,1,1.856-7.1q.438-1.315.965-2.587c.263-.628.541-1.257.818-1.885a49.459,49.459,0,0,1,10.231-14.615,50.261,50.261,0,0,1,35.383-14.454,52.755,52.755,0,0,1,7.951.614c1.272.2,2.543.453,3.785.745h0l1.871.482,1.462.438q1.111.351,2.192.745l1.783.687c.585.234,1.169.5,1.754.76l1.271.6.336.161a49.691,49.691,0,0,1,24.626,27.462,24.743,24.743,0,0,1,16.69-6.431,18.614,18.614,0,0,1,2.207.088,16.441,16.441,0,0,1-.117-1.915,20.462,20.462,0,0,1,7.571-15.857l-1.842-.5a45.648,45.648,0,0,1-13.387-6.474c-1.008-.716-1.988-1.462-2.923-2.236s-1.871-1.608-2.733-2.47a44.4,44.4,0,0,1-13.475-31.876,41.587,41.587,0,0,1,.395-5.758c.117-.862.263-1.725.424-2.587s.424-1.973.687-2.923c-1.169-.219-2.338-.5-3.478-.819l-1.681-.511c-1.125-.38-2.222-.789-3.289-1.242s-2.119-.965-3.142-1.461a41.047,41.047,0,0,1-7.147-4.808,39.855,39.855,0,0,1-14.323-30.589c0-.672,0-1.33,0-2v-.161a5.871,5.871,0,0,1,.117-1.462v-.643a.19.19,0,0,1,0-.088,9.513,9.513,0,0,1,.2-1.578v-.395c.088-.585.2-1.155.321-1.71s.263-1.2.409-1.8.248-.921.395-1.374.219-.76.336-1.125c.307-.935.658-1.871,1.038-2.777.146-.365.307-.731.468-1.1l.175-.365c.161-.351.321-.7.5-1.038.453-.935.965-1.856,1.461-2.762l.453-.731a2.635,2.635,0,0,1,.219-.336c.395-.628.8-1.228,1.257-1.827a2.007,2.007,0,0,1,.219-.307l.585-.775a28.23,28.23,0,0,1,1.914-2.28c.307-.336.614-.672.935-.994s.628-.658.965-.965.658-.643.994-.935.658-.6.994-.891h0a35.549,35.549,0,0,1,3.259-2.485,40.806,40.806,0,0,1,23.282-7.22,42.515,42.515,0,0,1,7.658.716v-.716a20.66,20.66,0,0,1,.161-2.7,5.942,5.942,0,0,1,.131-1.023,4.462,4.462,0,0,1,.073-.468c.1-.628.234-1.242.395-1.856a22.493,22.493,0,0,1,.7-2.192c.132-.365.278-.731.424-1.1s.248-.57.38-.848.2-.438.321-.658a24.028,24.028,0,0,1,3.683-5.349l.512-.541a16.984,16.984,0,0,1,1.272-1.242,8.466,8.466,0,0,1,.7-.6l.672-.541a18.486,18.486,0,0,1,2.192-1.535l.775-.468.789-.424c.278-.161.57-.307.848-.438.541-.248,1.067-.482,1.622-.687l.848-.322c.512-.175,1.023-.351,1.564-.482s.789-.219,1.2-.307l.8-.161a15.072,15.072,0,0,1,1.841-.278l.95-.088h1.929a24.685,24.685,0,0,1,16,5.846,18.064,18.064,0,0,1,18.138-17.173h.584a39.679,39.679,0,0,1-5.159-19.57,40.279,40.279,0,0,1,29.23-38.54,490.054,490.054,0,0,1,15.814,112.741C702.362,346.495,697.466,386.336,688.258,415.7Z" transform="translate(-16.556 -190.42)" fill="#37474f"/>
      <path id="Path_6" data-name="Path 6" d="M352.633,424.65H300.15a26.307,26.307,0,0,1,52.483,0Z" transform="translate(114.327 -93.603)" fill="#263238"/>
      <path id="Path_7" data-name="Path 7" d="M127.368,431.4C106.615,424.315,90.377,415.9,73,406.762A33.615,33.615,0,0,1,127.31,431.4Z" transform="translate(9.494 -93.882)" fill="#263238"/>
      <path id="Path_8" data-name="Path 8" d="M243.634,432.5H145.961a22.6,22.6,0,0,1-4.531-13.577,23.092,23.092,0,0,1,46.169-.541A33.746,33.746,0,0,1,243.633,432.5Z" transform="translate(41.075 -95.507)" fill="#263238"/>
      <path id="Path_9" data-name="Path 9" d="M520.059,361.34q-1.578,3.011-3.274,5.671-2.192,3.508-4.6,6.884c-1.9,2.7-3.9,5.364-6.007,7.951q-4.6,5.744-9.821,11.108a165.981,165.981,0,0,1-15.4,13.957c-23.384,18.722-53.4,33.133-90.965,43.509l-30.458,5.335-.146-5.335a55.537,55.537,0,0,1,74.7-21.791,25.547,25.547,0,0,1,24.129-17,26.046,26.046,0,0,1,7.044.994A54.69,54.69,0,0,1,520.059,361.34Z" transform="translate(141.662 -111.538)" fill="#263238"/>
      <path id="Path_10" data-name="Path 10" d="M484.449,380.221a36.333,36.333,0,0,1-6.241-67.39,25.635,25.635,0,0,1-9.266-19.657,26.044,26.044,0,0,1,26.234-25.883,17.44,17.44,0,0,1,2.324.1C498.553,311.019,493.657,350.86,484.449,380.221Z" transform="translate(187.254 -154.944)" fill="#263238"/>
      <path id="Path_11" data-name="Path 11" d="M55.509,396.37a36.45,36.45,0,0,0-20.052-32.431,25.635,25.635,0,0,0,9.266-19.716A26.044,26.044,0,0,0,18.489,318.34a13.992,13.992,0,0,0-1.929.088c.132,22.61,4.589,43.962,14.089,63.02a122.334,122.334,0,0,0,8.477,14.41A124.11,124.11,0,0,0,52.06,411.7a35.924,35.924,0,0,0,3.449-15.331Z" transform="translate(-16.554 -131.384)" fill="#263238"/>
      <path id="Path_12" data-name="Path 12" d="M442.1,289.491a7.98,7.98,0,1,1,2.373,5.635,8.038,8.038,0,0,1-2.373-5.635Z" transform="translate(179.838 -148.455)" fill="#263238"/>
      <path id="Path_13" data-name="Path 13" d="M58.48,346.881a7.98,7.98,0,1,1,2.373,5.635A8.038,8.038,0,0,1,58.48,346.881Z" transform="translate(2.793 -121.969)" fill="#263238"/>
      <path id="Path_14" data-name="Path 14" d="M126.79,403.645a8.374,8.374,0,1,1,2.494,5.919,8.447,8.447,0,0,1-2.494-5.919Z" transform="translate(34.319 -95.967)" fill="#263238"/>
      <path id="Path_15" data-name="Path 15" d="M346.32,412.554a8.447,8.447,0,1,1,8.448,8.331A8.448,8.448,0,0,1,346.32,412.554Z" transform="translate(135.634 -91.855)" fill="#263238"/>
      <ellipse id="Ellipse_1" data-name="Ellipse 1" cx="6.314" cy="6.226" rx="6.314" ry="6.226" transform="translate(599.139 36.45)" fill="#455a64"/>
      <path id="Path_16" data-name="Path 16" d="M328.77,347.472a5.846,5.846,0,1,1,5.846,5.7,5.729,5.729,0,0,1-5.846-5.7Z" transform="translate(127.535 -120.704)" fill="#455a64"/>
      <ellipse id="Ellipse_2" data-name="Ellipse 2" cx="4.691" cy="4.633" rx="4.691" ry="4.633" transform="translate(163.9 204.129)" fill="#455a64"/>
      <path id="Path_17" data-name="Path 17" d="M60.131,288.6a8.959,8.959,0,1,1,8.959,8.769,8.959,8.959,0,0,1-8.959-8.769Z" transform="translate(3.554 -149.332)" fill="#455a64"/>
      <path id="Path_18" data-name="Path 18" d="M279.62,410.888c-.365-.365-.76-.7-1.14-1.038a47.745,47.745,0,0,0,.921,5.232C279.4,413.664,279.488,412.276,279.62,410.888Z" transform="translate(104.326 -89.15)" fill="#7550fd"/>
      <path id="Path_19" data-name="Path 19" d="M367.041,394.62a48.624,48.624,0,0,0-88.8,26.585,45.419,45.419,0,0,0,.351,5.481c.38.336.775.672,1.14,1.038a48.61,48.61,0,0,1,83.16-28.894,47.5,47.5,0,0,1,12.335,22.434h0a47.148,47.148,0,0,0-8.184-26.643Z" transform="translate(104.215 -105.986)" fill="#7550fd"/>
      <path id="Path_20" data-name="Path 20" d="M410.47,345.523a51.913,51.913,0,0,1,6.621.438,50.467,50.467,0,0,0-22.463-5.261A49.691,49.691,0,0,0,344.6,390.041a48.769,48.769,0,0,0,2.295,14.834,49.94,49.94,0,0,0,41.1,34.068,50.146,50.146,0,0,1-11.385-7.775,49.092,49.092,0,0,1-14.776-24.758,48.58,48.58,0,0,1-1.388-11.546A49.691,49.691,0,0,1,410.47,345.523Z" transform="translate(134.841 -121.064)" fill="#7550fd"/>
      <path id="Path_21" data-name="Path 21" d="M473.166,380.118a45.307,45.307,0,0,1-45.614-44.985,12.762,12.762,0,0,1,.088-1.827,44.781,44.781,0,0,1,1.593-10.158A40.674,40.674,0,0,1,396.3,283.687a39.723,39.723,0,0,1,9.924-26.307,40.016,40.016,0,0,0,10.815,75.268,44.355,44.355,0,0,0-1.461,11.3,45.073,45.073,0,0,0,34.36,43.553,21.075,21.075,0,0,1,25.489-.833,45.511,45.511,0,0,0,18.707-11.692,45.935,45.935,0,0,1-20.973,5.145Z" transform="translate(153.011 -159.517)" fill="#7550fd"/>
      <path id="Path_22" data-name="Path 22" d="M437.486,271.007c.614-.117,1.228-.278,1.827-.438a13.242,13.242,0,0,1-2.163-.249C437.267,270.554,437.384,270.773,437.486,271.007Z" transform="translate(177.554 -153.545)" fill="#7550fd"/>
      <path id="Path_23" data-name="Path 23" d="M446.413,285.388a24.583,24.583,0,0,1-20.549-19.877,23.813,23.813,0,0,1-.409-4.238,24.2,24.2,0,0,1,1.462-8.331A24.655,24.655,0,0,1,443.5,237.758c-.555,0-1.111-.088-1.681-.088a24.846,24.846,0,0,0-22.829,15.1,23.924,23.924,0,0,0-1.915,9.383v.745a24.771,24.771,0,0,0,29.61,23.18A2.71,2.71,0,0,0,446.413,285.388Z" transform="translate(168.291 -168.614)" fill="#7550fd"/>
      <path id="Path_24" data-name="Path 24" d="M172.051,392.889a56.5,56.5,0,0,1,10.9-8.477,39.256,39.256,0,0,0-38.248-29.742,40,40,0,0,0-10.406,1.461A39.051,39.051,0,0,1,172.051,392.889Z" transform="translate(37.785 -114.617)" fill="#7550fd"/>
      <path id="Path_25" data-name="Path 25" d="M78.932,307.21h-1.2a54.967,54.967,0,0,1,44.43,53.769,53.871,53.871,0,0,1-6.694,26.073,55.081,55.081,0,0,1-8.769,11.9A55.683,55.683,0,0,1,67.81,415.64a56.834,56.834,0,0,0,11.122,1.1,55.919,55.919,0,0,0,26.629-6.694,55.216,55.216,0,0,0,24.948-27.769,53.827,53.827,0,0,0,3.946-20.286C134.455,331.749,109.595,307.21,78.932,307.21Z" transform="translate(7.099 -136.52)" fill="#7550fd"/>
      <path id="Path_26" data-name="Path 26" d="M62.382,293.237A55.786,55.786,0,0,1,47.212,331.5a39.241,39.241,0,0,0-21.762-.76A56.151,56.151,0,0,0,50.3,284.161,55.7,55.7,0,0,0,37,248c.175-.409.365-.8.555-1.213A56.064,56.064,0,0,1,62.382,293.237Z" transform="translate(-12.451 -164.405)" fill="#7550fd"/>
      <g id="Group_1" data-name="Group 1" transform="translate(12.999 69.056)" opacity="0.3">
        <path id="Path_27" data-name="Path 27" d="M279.62,410.888c-.365-.365-.76-.7-1.14-1.038a47.745,47.745,0,0,0,.921,5.232C279.4,413.664,279.488,412.276,279.62,410.888Z" transform="translate(91.327 -158.207)"/>
        <path id="Path_28" data-name="Path 28" d="M367.041,394.62a48.624,48.624,0,0,0-88.8,26.585,45.419,45.419,0,0,0,.351,5.481c.38.336.775.672,1.14,1.038a48.61,48.61,0,0,1,83.16-28.894,47.5,47.5,0,0,1,12.335,22.434h0a47.148,47.148,0,0,0-8.184-26.643Z" transform="translate(91.216 -175.042)"/>
        <path id="Path_29" data-name="Path 29" d="M410.47,345.523a51.913,51.913,0,0,1,6.621.438,50.467,50.467,0,0,0-22.463-5.261A49.691,49.691,0,0,0,344.6,390.041a48.769,48.769,0,0,0,2.295,14.834,49.94,49.94,0,0,0,41.1,34.068,50.146,50.146,0,0,1-11.385-7.775,49.092,49.092,0,0,1-14.776-24.758,48.58,48.58,0,0,1-1.388-11.546A49.691,49.691,0,0,1,410.47,345.523Z" transform="translate(121.842 -190.121)"/>
        <path id="Path_30" data-name="Path 30" d="M473.166,380.118a45.307,45.307,0,0,1-45.614-44.985,12.762,12.762,0,0,1,.088-1.827,44.781,44.781,0,0,1,1.593-10.158A40.674,40.674,0,0,1,396.3,283.687a39.723,39.723,0,0,1,9.924-26.307,40.016,40.016,0,0,0,10.815,75.268,44.355,44.355,0,0,0-1.461,11.3,45.073,45.073,0,0,0,34.36,43.553,21.075,21.075,0,0,1,25.489-.833,45.511,45.511,0,0,0,18.707-11.692,45.935,45.935,0,0,1-20.973,5.145Z" transform="translate(140.012 -228.574)"/>
        <path id="Path_31" data-name="Path 31" d="M437.486,271.007c.614-.117,1.228-.278,1.827-.438a13.242,13.242,0,0,1-2.163-.249C437.267,270.554,437.384,270.773,437.486,271.007Z" transform="translate(164.555 -222.602)"/>
        <path id="Path_32" data-name="Path 32" d="M446.413,285.388a24.583,24.583,0,0,1-20.549-19.877,23.813,23.813,0,0,1-.409-4.238,24.2,24.2,0,0,1,1.462-8.331A24.655,24.655,0,0,1,443.5,237.758c-.555,0-1.111-.088-1.681-.088a24.846,24.846,0,0,0-22.829,15.1,23.924,23.924,0,0,0-1.915,9.383v.745a24.771,24.771,0,0,0,29.61,23.18A2.71,2.71,0,0,0,446.413,285.388Z" transform="translate(155.292 -237.67)"/>
        <path id="Path_33" data-name="Path 33" d="M172.051,392.889a56.5,56.5,0,0,1,10.9-8.477,39.256,39.256,0,0,0-38.248-29.742,40,40,0,0,0-10.406,1.461A39.051,39.051,0,0,1,172.051,392.889Z" transform="translate(24.786 -183.673)"/>
        <path id="Path_34" data-name="Path 34" d="M78.932,307.21h-1.2a54.967,54.967,0,0,1,44.43,53.769,53.871,53.871,0,0,1-6.694,26.073,55.081,55.081,0,0,1-8.769,11.9A55.683,55.683,0,0,1,67.81,415.64a56.834,56.834,0,0,0,11.122,1.1,55.919,55.919,0,0,0,26.629-6.694,55.216,55.216,0,0,0,24.948-27.769,53.827,53.827,0,0,0,3.946-20.286C134.455,331.749,109.595,307.21,78.932,307.21Z" transform="translate(-5.9 -205.576)"/>
        <path id="Path_35" data-name="Path 35" d="M62.382,293.237A55.786,55.786,0,0,1,47.212,331.5a39.241,39.241,0,0,0-21.762-.76A56.151,56.151,0,0,0,50.3,284.161,55.7,55.7,0,0,0,37,248c.175-.409.365-.8.555-1.213A56.064,56.064,0,0,1,62.382,293.237Z" transform="translate(-25.45 -233.461)"/>
      </g>
    </g>
    <g id="freepik--Rocket--inject-1--inject-111" transform="translate(143.913 127.658)">
      <ellipse id="Ellipse_3" data-name="Ellipse 3" cx="91.476" cy="37.502" rx="91.476" ry="37.502" transform="translate(122.393 433.529)" fill="#7550fd"/>
      <ellipse id="Ellipse_4" data-name="Ellipse 4" cx="91.476" cy="37.502" rx="91.476" ry="37.502" transform="translate(122.393 433.529)" fill="#7550fd"/>
      <ellipse id="Ellipse_5" data-name="Ellipse 5" cx="91.476" cy="37.502" rx="91.476" ry="37.502" transform="translate(122.393 433.529)" fill="#fff" opacity="0.9"/>
      <path id="Path_36" data-name="Path 36" d="M186.294,424.16a40.645,40.645,0,0,1,81.26,0c0,.395,0,.745,0,1.14v1.125c-.468,5.627-4.385,11.151-11.9,15.477-15.857,9.164-41.624,9.164-57.511,0-7.424-4.384-11.4-9.851-11.853-15.477V425.3C186.294,424.906,186.265,424.555,186.294,424.16Z" transform="translate(-65.582 27.491)" fill="#7550fd"/>
      <path id="Path_37" data-name="Path 37" d="M186.294,424.16a40.645,40.645,0,0,1,81.26,0c0,.395,0,.745,0,1.14v1.125c-.468,5.627-4.385,11.151-11.9,15.477-15.857,9.164-41.624,9.164-57.511,0-7.424-4.384-11.4-9.851-11.853-15.477V425.3C186.294,424.906,186.265,424.555,186.294,424.16Z" transform="translate(-65.582 27.491)" fill="#fff" opacity="0.8"/>
      <path id="Path_38" data-name="Path 38" d="M202,388.677h0a40.615,40.615,0,0,1,58.27,35.471v2.265c-.468,5.627-4.385,11.151-11.9,15.477a54.193,54.193,0,0,1-20.388,6.358c10.537-1.827,17.363-13.592,14.118-26.585C238.377,406.581,223.133,384.79,202,388.677Z" transform="translate(-58.328 27.503)" fill="#fff" opacity="0.3"/>
      <path id="Path_39" data-name="Path 39" d="M186.29,423.207v-2.265a40.454,40.454,0,0,1,13.8-29.362c-4.385,4.545-14.235,21.645-3.566,34.7,7.015,8.579,40.338,20.812,67.756,5.086a28.59,28.59,0,0,1-8.623,7.308c-15.857,9.164-41.624,9.164-57.511,0C190.718,434.358,186.743,428.834,186.29,423.207Z" transform="translate(-65.578 30.71)" fill="#7550fd" opacity="0.1"/>
      <path id="Path_40" data-name="Path 40" d="M214.521,392.187c-1.812,4.136,1.681,9.675,7.8,12.364s12.584,1.461,14.4-2.616-1.681-9.69-7.8-12.379S216.348,388.036,214.521,392.187Z" transform="translate(-52.77 29.109)" fill="#fff" opacity="0.5"/>
      <path id="Path_41" data-name="Path 41" d="M230.575,403.161c-.95,2.163.424,4.852,3.069,6.021s5.554.351,6.5-1.812-.424-4.852-3.069-6.007S231.525,401.071,230.575,403.161Z" transform="translate(-45.279 34.987)" fill="#fff" opacity="0.5"/>
      <path id="Path_42" data-name="Path 42" d="M322.53,428.576a34.5,34.5,0,1,0-69.005,0c.007.336.007.643.007.965v.965c.38,4.779,3.756,9.471,10.1,13.154,13.461,7.775,35.339,7.775,48.829,0,6.314-3.668,9.675-8.36,10.07-13.154v-.965C322.53,429.2,322.56,428.912,322.53,428.576Z" transform="translate(-34.548 31.859)" fill="#7550fd"/>
      <path id="Path_43" data-name="Path 43" d="M322.53,428.576a34.5,34.5,0,1,0-69.005,0c.007.336.007.643.007.965v.965c.38,4.779,3.756,9.471,10.1,13.154,13.461,7.775,35.339,7.775,48.829,0,6.314-3.668,9.675-8.36,10.07-13.154v-.965C322.53,429.2,322.56,428.912,322.53,428.576Z" transform="translate(-34.548 31.859)" fill="#fff" opacity="0.8"/>
      <path id="Path_44" data-name="Path 44" d="M303,398.158h0A34.462,34.462,0,0,0,253.53,428.28v1.929c.38,4.779,3.756,9.471,10.1,13.154a45.892,45.892,0,0,0,17.3,5.393c-8.944-1.534-14.747-11.531-11.984-22.58C272.135,413.358,285.084,394.855,303,398.158Z" transform="translate(-34.546 32.155)" fill="#fff" opacity="0.3"/>
      <path id="Path_45" data-name="Path 45" d="M321.651,427.483v-1.929a34.3,34.3,0,0,0-11.692-24.933c3.741,3.858,12.087,18.386,3.025,29.464-5.963,7.307-34.258,17.684-57.554,4.384a24.305,24.305,0,0,0,7.308,6.211c13.461,7.775,35.339,7.775,48.829,0C317.9,436.953,321.257,432.262,321.651,427.483Z" transform="translate(-33.669 34.882)" fill="#7550fd" opacity="0.1"/>
      <path id="Path_46" data-name="Path 46" d="M282.972,401.09c1.549,3.522-1.461,8.228-6.621,10.508s-10.684,1.286-12.233-2.236,1.461-8.214,6.635-10.508S281.438,397.626,282.972,401.09Z" transform="translate(-29.847 33.506)" fill="#fff" opacity="0.5"/>
      <path id="Path_47" data-name="Path 47" d="M265.8,410.467a4.531,4.531,0,1,1-5.524-1.462,4.107,4.107,0,0,1,5.524,1.461Z" transform="translate(-32.666 38.51)" fill="#fff" opacity="0.5"/>
      <path id="Path_48" data-name="Path 48" d="M339.158,428.681a22.829,22.829,0,0,0-45.628,0,7.1,7.1,0,0,0,0,1.286c.248,3.157,2.485,6.255,6.679,8.681,8.9,5.145,23.384,5.145,32.285,0,4.18-2.426,6.4-5.524,6.665-8.681v-.643C339.158,429.1,339.172,428.9,339.158,428.681Z" transform="translate(-16.099 37.674)" fill="#7550fd"/>
      <path id="Path_49" data-name="Path 49" d="M339.158,428.681a22.829,22.829,0,0,0-45.628,0,7.1,7.1,0,0,0,0,1.286c.248,3.157,2.485,6.255,6.679,8.681,8.9,5.145,23.384,5.145,32.285,0,4.18-2.426,6.4-5.524,6.665-8.681v-.643C339.158,429.1,339.172,428.9,339.158,428.681Z" transform="translate(-16.099 37.674)" fill="#fff" opacity="0.9"/>
      <path id="Path_50" data-name="Path 50" d="M326.252,408.829h0a22.8,22.8,0,0,0-32.723,19.906,7.1,7.1,0,0,0,0,1.286c.249,3.157,2.485,6.255,6.679,8.681a30.046,30.046,0,0,0,11.444,3.566c-5.919-1.023-9.748-7.629-7.921-14.922C305.835,418.9,314.4,406.637,326.252,408.829Z" transform="translate(-16.099 37.62)" fill="#fff" opacity="0.5"/>
      <path id="Path_51" data-name="Path 51" d="M338.553,428.222v-1.286a22.7,22.7,0,0,0-7.746-16.486c2.485,2.543,7.995,12.16,2,19.482-3.946,4.823-22.653,11.692-38,2.923a16.267,16.267,0,0,0,4.852,4.107c8.9,5.144,23.384,5.144,32.285,0C336.01,434.477,338.29,431.379,338.553,428.222Z" transform="translate(-15.495 39.419)" fill="#7550fd" opacity="0.1"/>
      <path id="Path_52" data-name="Path 52" d="M313.022,410.789c1.023,2.324-.935,5.437-4.384,6.942s-7.059.848-8.082-1.461.935-5.437,4.385-6.942S311.955,408.451,313.022,410.789Z" transform="translate(-12.968 38.524)" fill="#fff" opacity="0.5"/>
      <path id="Path_53" data-name="Path 53" d="M301.7,417.106a3,3,0,0,1-5.378,2.353,2.935,2.935,0,1,1,5.378-2.353Z" transform="translate(-14.913 41.678)" fill="#fff" opacity="0.5"/>
      <path id="Path_54" data-name="Path 54" d="M380.167,434.2a31.01,31.01,0,1,0-62.019,0,8.5,8.5,0,0,0,.007.862,8.37,8.37,0,0,0,0,.862c.351,4.3,3.376,8.506,9.076,11.809,12.1,7,31.759,7,43.845,0,5.671-3.3,8.7-7.512,9.047-11.809a8.4,8.4,0,0,0,0-.862A8.523,8.523,0,0,0,380.167,434.2Z" transform="translate(-4.728 36.068)" fill="#7550fd"/>
      <path id="Path_55" data-name="Path 55" d="M380.167,434.2a31.01,31.01,0,1,0-62.019,0,8.5,8.5,0,0,0,.007.862,8.37,8.37,0,0,0,0,.862c.351,4.3,3.376,8.506,9.076,11.809,12.1,7,31.759,7,43.845,0,5.671-3.3,8.7-7.512,9.047-11.809a8.4,8.4,0,0,0,0-.862A8.523,8.523,0,0,0,380.167,434.2Z" transform="translate(-4.728 36.068)" fill="#fff" opacity="0.7"/>
      <path id="Path_56" data-name="Path 56" d="M362.627,406.868h0a30.984,30.984,0,0,0-44.474,27.067,8.518,8.518,0,0,0,0,.862,8.362,8.362,0,0,0,0,.862c.351,4.3,3.376,8.506,9.076,11.809a41.3,41.3,0,0,0,15.551,4.867c-8.053-1.389-13.256-10.362-10.786-20.286C334.888,420.518,346.521,403.886,362.627,406.868Z" transform="translate(-4.727 36.337)" fill="#fff" opacity="0.3"/>
      <path id="Path_57" data-name="Path 57" d="M379.373,433.214a8.345,8.345,0,0,0,0-.862,8.511,8.511,0,0,0,0-.862,30.9,30.9,0,0,0-10.523-22.42c3.361,3.478,10.859,16.53,2.718,26.483-5.364,6.548-30.779,15.887-51.708,3.888a21.559,21.559,0,0,0,6.577,5.583c12.1,7,31.759,7,43.845,0C376,441.72,379.022,437.511,379.373,433.214Z" transform="translate(-3.934 38.782)" fill="#7550fd" opacity="0.1"/>
      <path id="Path_58" data-name="Path 58" d="M344.615,409.531c1.462,3.172-1.272,7.4-5.963,9.456s-9.587,1.155-10.976-2.017,1.272-7.381,5.948-9.441S343.227,406.375,344.615,409.531Z" transform="translate(-0.497 37.56)" fill="#fff" opacity="0.5"/>
      <path id="Path_59" data-name="Path 59" d="M329.194,417.9a4.078,4.078,0,1,1-4.95-1.36,4.078,4.078,0,0,1,4.95,1.36Z" transform="translate(-3.038 42.07)" fill="#fff" opacity="0.5"/>
      <path id="Path_60" data-name="Path 60" d="M298.871,386.429A36.976,36.976,0,0,1,285.79,414.68a24.1,24.1,0,0,0-8.769,18.371V493.31c0,2.251-1.461,4.516-4.458,6.226a18.917,18.917,0,0,1-5.6,2.046,25.839,25.839,0,0,1-10.377,0,19,19,0,0,1-5.568-2.046c-2.923-1.71-4.458-3.975-4.458-6.226V432.876a23.881,23.881,0,0,0-8.769-18.167,37.123,37.123,0,1,1,61.033-28.28Z" transform="translate(-47.88 11.146)" fill="#7550fd"/>
      <path id="Path_61" data-name="Path 61" d="M298.871,386.429A36.976,36.976,0,0,1,285.79,414.68a24.1,24.1,0,0,0-8.769,18.371V493.31c0,2.251-1.461,4.516-4.458,6.226a18.917,18.917,0,0,1-5.6,2.046,25.839,25.839,0,0,1-10.377,0,19,19,0,0,1-5.568-2.046c-2.923-1.71-4.458-3.975-4.458-6.226V432.876a23.881,23.881,0,0,0-8.769-18.167,37.123,37.123,0,1,1,61.033-28.28Z" transform="translate(-47.88 11.146)" fill="#fff" opacity="0.5"/>
      <path id="Path_62" data-name="Path 62" d="M277.305,381.3a20.666,20.666,0,0,1-8.769,16.851,16.807,16.807,0,0,0-6.8,13.767v69.115a5.247,5.247,0,0,1-5.13,5.305h-.073a5.247,5.247,0,0,1-5.144-5.305V411.639a16.544,16.544,0,0,0-6.781-13.5A20.77,20.77,0,1,1,277.232,381.3Z" transform="translate(-42.712 16.278)" fill="#7550fd"/>
      <path id="Path_63" data-name="Path 63" d="M277.305,381.3a20.666,20.666,0,0,1-8.769,16.851,16.807,16.807,0,0,0-6.8,13.767v69.115a5.247,5.247,0,0,1-5.13,5.305h-.073a5.247,5.247,0,0,1-5.144-5.305V411.639a16.544,16.544,0,0,0-6.781-13.5A20.77,20.77,0,1,1,277.232,381.3Z" transform="translate(-42.712 16.278)" fill="#fff" opacity="0.7"/>
      <circle id="Ellipse_6" data-name="Ellipse 6" cx="9.675" cy="9.675" r="9.675" transform="translate(219.7 401.609)" fill="#fff" opacity="0.7"/>
      <path id="Path_64" data-name="Path 64" d="M256.59,372.726a5.846,5.846,0,1,1,1.738,4.16A5.846,5.846,0,0,1,256.59,372.726Z" transform="translate(-33.134 19.311)" fill="#fff" opacity="0.7"/>
      <path id="Path_65" data-name="Path 65" d="M248.87,365.353a2.923,2.923,0,1,1,2.923,2.923A2.923,2.923,0,0,1,248.87,365.353Z" transform="translate(-36.697 17.257)" fill="#fff" opacity="0.7"/>
      <path id="Path_66" data-name="Path 66" d="M232.87,369.341a7.936,7.936,0,1,1,2.319,5.621,7.951,7.951,0,0,1-2.319-5.621Z" transform="translate(-44.081 16.777)" fill="#fff" opacity="0.7"/>
      <path id="Path_67" data-name="Path 67" d="M232,377.837a3.727,3.727,0,1,0,3.727-3.727A3.727,3.727,0,0,0,232,377.837Z" transform="translate(-44.482 22.647)" fill="#fff" opacity="0.7"/>
      <circle id="Ellipse_7" data-name="Ellipse 7" cx="6.051" cy="6.051" r="6.051" transform="translate(190.236 407.47)" fill="#fff" opacity="0.7"/>
      <path id="Path_68" data-name="Path 68" d="M243.74,393.4a4.984,4.984,0,1,1,4.984,4.984,4.984,4.984,0,0,1-4.984-4.984Z" transform="translate(-39.064 29.252)" fill="#fff" opacity="0.7"/>
      <path id="Path_69" data-name="Path 69" d="M227.12,371.688a2.543,2.543,0,1,1,2.543,2.528,2.543,2.543,0,0,1-2.543-2.528Z" transform="translate(-46.735 20.349)" fill="#fff" opacity="0.7"/>
      <path id="Path_70" data-name="Path 70" d="M264.93,364.747a3.347,3.347,0,1,1,3.347,3.347,3.347,3.347,0,0,1-3.347-3.347Z" transform="translate(-29.285 16.782)" fill="#fff" opacity="0.7"/>
      <path id="Path_71" data-name="Path 71" d="M267.21,375.991a3.376,3.376,0,1,1,3.361,3.361A3.376,3.376,0,0,1,267.21,375.991Z" transform="translate(-28.233 21.95)" fill="#fff" opacity="0.7"/>
      <path id="Path_72" data-name="Path 72" d="M243.34,377.846a3.362,3.362,0,1,1,.979,2.386,3.376,3.376,0,0,1-.979-2.386Z" transform="translate(-39.249 22.813)" fill="#fff" opacity="0.7"/>
      <path id="Path_73" data-name="Path 73" d="M286.335,125a1.988,1.988,0,0,0-1.155.336,53.559,53.559,0,0,0-4.384,5.656c-3.157,4.765-9.748,14.162-12.072,24.1a13.93,13.93,0,0,0-.351,3.391c-4.019,70.284-1.228,121.218-.131,200.476h0c0,2.777,2.441,5.612,7.5,7.22a20.8,20.8,0,0,0,11.853.234c5.115-1.462,7.717-4.136,7.775-6.913h0c4.472-79.156,9-129.943,7.731-200.344a13.148,13.148,0,0,0-.2-3.391c-1.929-10.026-8.155-19.672-11.122-24.553a52.379,52.379,0,0,0-4.238-5.846,1.944,1.944,0,0,0-1.2-.365Z" transform="translate(-28.665 -92.32)" fill="#455a64"/>
      <path id="Path_74" data-name="Path 74" d="M302.5,149.281a12.48,12.48,0,0,1-4.3,3.493c-7.454,3.873-19.233,3.376-26.307-1.125a12.349,12.349,0,0,1-4.107-4.048c0,.132,0,.263,0,.409l-.351,6.4a12.073,12.073,0,0,0,4.18,4.165c7.088,4.5,18.868,5.013,26.307,1.125a11.692,11.692,0,0,0,4.691-4.092C302.575,153.519,302.546,151.4,302.5,149.281Z" transform="translate(-28.126 -81.89)" fill="#7550fd"/>
      <path id="Path_75" data-name="Path 75" d="M285.18,125.293a53.547,53.547,0,0,0-4.384,5.656c-3.157,4.765-9.748,14.162-12.072,24.1a13.93,13.93,0,0,0-.351,3.391c-4.019,70.284-1.228,121.218-.131,200.476h0c0,2.485,1.944,5,5.978,6.665.278-40.542.891-140.042.789-170.252-.19-38.175,8.55-64.73,11.327-70.328A2.017,2.017,0,0,0,285.18,125.293Z" transform="translate(-28.665 -92.321)" fill="#37474f"/>
      <path id="Path_76" data-name="Path 76" d="M239.921,297c-6.694,21.674-13.5,43.319-20.753,64.818-1.286,3.756.351,8.608,3.931,11.692A62.246,62.246,0,0,0,264.5,388.2a64.059,64.059,0,0,0,41.4-15.2c3.566-3.1,5.2-7.863,3.931-11.531-7.381-21.163-14.162-42.515-20.753-63.927Z" transform="translate(-50.606 -12.94)" fill="#37474f"/>
      <path id="Path_77" data-name="Path 77" d="M264.517,352.792c-15.068.5-32.036-5.218-43.334-15.4l-2.046,5.948c-1.286,3.756.351,8.608,3.931,11.692a62.626,62.626,0,0,0,41.4,14.688,64.409,64.409,0,0,0,41.449-15.229c3.566-3.1,5.2-7.863,3.931-11.531-.8-2.309-1.2-3.478-2-5.846C295.955,347.6,280.112,352.28,264.517,352.792Z" transform="translate(-50.62 5.571)" fill="#455a64"/>
      <path id="Path_78" data-name="Path 78" d="M303.32,352.4a64.306,64.306,0,0,1-41.478,15.229h-3.055c-.994,0-1.988-.088-2.923-.161l-1.461-.146-2.236-.249a8.62,8.62,0,0,1-1.462-.219l-1.461-.248-2.353-.453-.424-.1c-.906-.2-1.8-.438-2.66-.672s-2.119-.614-3.128-.95l-1.754-.628c-.775-.263-1.462-.57-2.251-.877-1.461-.585-2.806-1.213-4.078-1.841l-.965-.5c-.395-.19-.775-.409-1.111-.6s-1.067-.6-1.564-.891l-1.622-.994L225.8,357.1c-.482-.322-.935-.658-1.461-.979,1.067-5.744,1.608-8.638,2.675-14.484a61.556,61.556,0,0,0,10.274,4.911c-.38,2.821-.862,5.042-.76,5.452C240.5,366.559,275.318,369.146,303.32,352.4Z" transform="translate(-48.018 7.662)" fill="#263238"/>
      <path id="Path_79" data-name="Path 79" d="M302.6,180.144a35.688,35.688,0,0,0-.716-8.769c-5.481-25.708-21.455-48.61-29.844-60.667a36.86,36.86,0,0,0-6.4-7.147,5.261,5.261,0,0,0-5.948,0,31.67,31.67,0,0,0-6.387,7.147c-7.863,12.408-24.378,34.959-29.859,60.667a35.688,35.688,0,0,0-.716,8.769l4.984,228.244h0c0,7.147,6.562,14.308,19.672,18.21a53.886,53.886,0,0,0,30.575,0c13.154-3.9,19.657-11.064,19.657-18.21h0Z" transform="translate(-48.775 -102.64)" fill="#7550fd"/>
      <path id="Path_80" data-name="Path 80" d="M272.635,196.517c0,21.338-1.608,139.794-2.821,225.994,8.638-4.063,12.964-9.88,12.964-15.682h0l4.984-228.244a35.685,35.685,0,0,0-.716-8.769c-5.481-25.708-21.455-48.61-29.844-60.667-.7-.994-1.549-2.09-2.411-3.128C265.927,127.08,272.635,162.3,272.635,196.517Z" transform="translate(-33.965 -101.08)" fill="#fff" opacity="0.5"/>
      <path id="Path_81" data-name="Path 81" d="M266.808,389.793c13.154-3.9,19.657-11.064,19.657-18.21h0l4-183.332a24.933,24.933,0,0,0-3.815-5,4.838,4.838,0,0,0-5.51,0c-1.33.921-4.531,6.211-6.065,8.491-7.571,11.151-22.449,32.226-27.52,56.049a33.452,33.452,0,0,0-.672,8.1l4.56,133.334a10.593,10.593,0,0,0,.38,2.777,54.075,54.075,0,0,0,14.981-2.207Z" transform="translate(-37.623 -65.833)" opacity="0.1"/>
      <path id="Path_82" data-name="Path 82" d="M265.64,103.591a5.262,5.262,0,0,0-5.948,0,31.673,31.673,0,0,0-6.387,7.147c-7.863,12.408-24.378,34.959-29.859,60.667a35.687,35.687,0,0,0-.716,8.769l4.984,228.244c0,6.3,5.1,12.6,15.258,16.676v-133c0-75.706,2.148-126.889,5.481-145.7S261.9,101.589,265.64,103.591Z" transform="translate(-48.775 -102.626)" opacity="0.2"/>
      <path id="Path_83" data-name="Path 83" d="M231.9,165.806c16.837,9.719,44.152,9.719,60.989,0a28.749,28.749,0,0,0,9.719-8.623,34.014,34.014,0,0,0-.731-6.431c-.234-1.125-.5-2.221-.775-3.332a31.057,31.057,0,0,1-8.214,6.621c-16.837,9.719-44.152,9.719-60.989,0a31.89,31.89,0,0,1-7.8-6.153c-.234.95-.453,1.9-.658,2.923A36.058,36.058,0,0,0,222.71,158,29.479,29.479,0,0,0,231.9,165.806Z" transform="translate(-48.77 -81.973)" fill="#455a64"/>
      <path id="Path_84" data-name="Path 84" d="M222.95,153.5a2.745,2.745,0,0,1-.1.906c-.1.307,0,.877-.088,1.33v2.032a29.478,29.478,0,0,0,9.12,7.863,51.152,51.152,0,0,0,12.818,5.086q.263-6.138.57-11.619a51.929,51.929,0,0,1-13.387-5.159,31.89,31.89,0,0,1-7.8-6.153c-.234.95-.453,1.9-.658,2.923-.132.643-.248,1.286-.336,1.944A7,7,0,0,0,222.95,153.5Z" transform="translate(-48.747 -81.802)" fill="#37474f"/>
      <path id="Path_85" data-name="Path 85" d="M301.133,346.06H288.388c-1.812,11.005,4.034,19.453,6.372,19.453S302.887,357.065,301.133,346.06Z" transform="translate(-18.617 9.702)" fill="#7550fd"/>
      <path id="Path_86" data-name="Path 86" d="M301.133,346.06H288.388c-1.812,11.005,4.034,19.453,6.372,19.453S302.887,357.065,301.133,346.06Z" transform="translate(-18.617 9.702)" fill="#fff" opacity="0.7"/>
      <path id="Path_87" data-name="Path 87" d="M293.681,346.06h2.178a9.675,9.675,0,0,1,1.184,5.846c-.263,2.923-2.046,6.825-3.361,6.825s-3.1-3.858-3.361-6.825a9.674,9.674,0,0,1,1.184-5.846h2.178" transform="translate(-17.596 9.702)" fill="#fff"/>
      <path id="Path_88" data-name="Path 88" d="M301.413,332.52l-13.154,4.648-1.038,4.385a5.32,5.32,0,0,0,2.382,4.662,8.6,8.6,0,0,0,2,1.1,10.756,10.756,0,0,0,7.614,0,8.769,8.769,0,0,0,1.958-1.082,5.291,5.291,0,0,0,2.382-4.662Z" transform="translate(-18.999 3.453)" fill="#7550fd"/>
      <path id="Path_89" data-name="Path 89" d="M301.413,332.52l-13.154,4.648-1.038,4.385a5.32,5.32,0,0,0,2.382,4.662,8.6,8.6,0,0,0,2,1.1,10.756,10.756,0,0,0,7.614,0,8.769,8.769,0,0,0,1.958-1.082,5.291,5.291,0,0,0,2.382-4.662Z" transform="translate(-18.999 3.453)" opacity="0.25"/>
      <path id="Path_90" data-name="Path 90" d="M304.456,339.61l.438,1.856a5.846,5.846,0,0,1-2.616,4.852,8.768,8.768,0,0,1-2.148,1.184,11.692,11.692,0,0,1-8.257,0,9.083,9.083,0,0,1-2.192-1.2,5.846,5.846,0,0,1-2.6-4.867l-1.2,5.145h0a5.846,5.846,0,0,0,2.923,4.779,10.467,10.467,0,0,0,2.572,1.242,14.747,14.747,0,0,0,9.193,0,11.3,11.3,0,0,0,2.528-1.242,5.845,5.845,0,0,0,2.923-4.779Z" transform="translate(-19.616 6.725)" fill="#7550fd"/>
      <path id="Path_91" data-name="Path 91" d="M304.456,339.61l.438,1.856a5.846,5.846,0,0,1-2.616,4.852,8.768,8.768,0,0,1-2.148,1.184,11.692,11.692,0,0,1-8.257,0,9.083,9.083,0,0,1-2.192-1.2,5.846,5.846,0,0,1-2.6-4.867l-1.2,5.145h0a5.846,5.846,0,0,0,2.923,4.779,10.467,10.467,0,0,0,2.572,1.242,14.747,14.747,0,0,0,9.193,0,11.3,11.3,0,0,0,2.528-1.242,5.845,5.845,0,0,0,2.923-4.779Z" transform="translate(-19.616 6.725)" opacity="0.25"/>
      <path id="Path_92" data-name="Path 92" d="M304.077,340.005l-.1-.438-.2-.862a5.291,5.291,0,0,1-2.382,4.662,8.777,8.777,0,0,1-1.958,1.081,10.757,10.757,0,0,1-7.614,0,8.593,8.593,0,0,1-2-1.1,5.32,5.32,0,0,1-2.382-4.662l-.731,3.172a5.846,5.846,0,0,0,2.6,4.867,9.089,9.089,0,0,0,2.192,1.2,11.692,11.692,0,0,0,8.258,0,8.768,8.768,0,0,0,2.148-1.184,5.846,5.846,0,0,0,2.616-4.852Z" transform="translate(-19.238 6.301)" fill="#455a64"/>
      <path id="Path_93" data-name="Path 93" d="M303.02,337.241l-1.111-4.721-13.154,4.648-1.038,4.385h0l-.292,1.3-.439,1.871h0l-.848,3.581C293.623,346.171,299.659,342.2,303.02,337.241Z" transform="translate(-19.496 3.453)" opacity="0.15"/>
      <path id="Path_94" data-name="Path 94" d="M270.283,346.06H257.538c-1.812,11.005,4.034,19.453,6.372,19.453S272.11,357.065,270.283,346.06Z" transform="translate(-32.855 9.702)" fill="#7550fd"/>
      <path id="Path_95" data-name="Path 95" d="M270.283,346.06H257.538c-1.812,11.005,4.034,19.453,6.372,19.453S272.11,357.065,270.283,346.06Z" transform="translate(-32.855 9.702)" fill="#fff" opacity="0.7"/>
      <path id="Path_96" data-name="Path 96" d="M262.871,346.06h2.192a9.675,9.675,0,0,1,1.184,5.846c-.263,2.923-2.061,6.825-3.376,6.825s-3.1-3.858-3.362-6.825a9.675,9.675,0,0,1,1.184-5.846h2.178" transform="translate(-31.815 9.702)" fill="#fff"/>
      <path id="Path_97" data-name="Path 97" d="M270.608,332.52H258.55l-2.148,9.032a5.276,5.276,0,0,0,2.368,4.662,8.6,8.6,0,0,0,2,1.1,10.756,10.756,0,0,0,7.615,0,8.492,8.492,0,0,0,1.958-1.082,5.291,5.291,0,0,0,2.382-4.662Z" transform="translate(-33.224 3.453)" fill="#7550fd"/>
      <path id="Path_98" data-name="Path 98" d="M270.608,332.52H258.55l-2.148,9.032a5.276,5.276,0,0,0,2.368,4.662,8.6,8.6,0,0,0,2,1.1,10.756,10.756,0,0,0,7.615,0,8.492,8.492,0,0,0,1.958-1.082,5.291,5.291,0,0,0,2.382-4.662Z" transform="translate(-33.224 3.453)" opacity="0.25"/>
      <path id="Path_99" data-name="Path 99" d="M273.543,339.29l.1.438.438,1.885a5.846,5.846,0,0,1-2.616,4.852,8.767,8.767,0,0,1-2.148,1.184,11.691,11.691,0,0,1-8.258,0,9.379,9.379,0,0,1-2.192-1.2,5.846,5.846,0,0,1-2.6-4.867l-1.2,5.144h0a5.846,5.846,0,0,0,2.923,4.779,10.466,10.466,0,0,0,2.572,1.242,14.748,14.748,0,0,0,9.193,0,11.006,11.006,0,0,0,2.528-1.242,5.846,5.846,0,0,0,2.923-4.779Z" transform="translate(-33.835 6.578)" fill="#7550fd"/>
      <path id="Path_100" data-name="Path 100" d="M273.543,339.29l.1.438.438,1.885a5.846,5.846,0,0,1-2.616,4.852,8.767,8.767,0,0,1-2.148,1.184,11.691,11.691,0,0,1-8.258,0,9.379,9.379,0,0,1-2.192-1.2,5.846,5.846,0,0,1-2.6-4.867l-1.2,5.144h0a5.846,5.846,0,0,0,2.923,4.779,10.466,10.466,0,0,0,2.572,1.242,14.748,14.748,0,0,0,9.193,0,11.006,11.006,0,0,0,2.528-1.242,5.846,5.846,0,0,0,2.923-4.779Z" transform="translate(-33.835 6.578)" opacity="0.25"/>
      <path id="Path_101" data-name="Path 101" d="M273.267,340.005l-.1-.438-.2-.862a5.291,5.291,0,0,1-2.382,4.662,8.493,8.493,0,0,1-1.958,1.081,10.757,10.757,0,0,1-7.614,0,8.589,8.589,0,0,1-2-1.1,5.276,5.276,0,0,1-2.368-4.662l-.745,3.171a5.846,5.846,0,0,0,2.6,4.867,9.38,9.38,0,0,0,2.192,1.2,11.692,11.692,0,0,0,8.258,0,8.769,8.769,0,0,0,2.148-1.184,5.846,5.846,0,0,0,2.616-4.852Z" transform="translate(-33.457 6.301)" fill="#455a64"/>
      <path id="Path_102" data-name="Path 102" d="M258.221,332.52,257.11,337.2c3.332,4.969,9.368,8.944,16.866,11.093l-1.374-5.846-.2-.862h0l-2.119-9.032Z" transform="translate(-32.894 3.453)" opacity="0.15"/>
      <path id="Path_103" data-name="Path 103" d="M293.927,352.565l-12.408-3.215-12.408,3.215a50.13,50.13,0,0,0,.132,17.056c1.622,10.421,8.886,20.841,12.277,20.841s10.64-10.421,12.262-20.841A50.422,50.422,0,0,0,293.927,352.565Z" transform="translate(-27.663 11.22)" fill="#7550fd"/>
      <path id="Path_104" data-name="Path 104" d="M293.927,352.565l-12.408-3.215-12.408,3.215a50.13,50.13,0,0,0,.132,17.056c1.622,10.421,8.886,20.841,12.277,20.841s10.64-10.421,12.262-20.841A50.422,50.422,0,0,0,293.927,352.565Z" transform="translate(-27.663 11.22)" fill="#fff" opacity="0.7"/>
      <path id="Path_105" data-name="Path 105" d="M288.448,352.58H271.466c-2.426,14.615,5.364,25.913,8.491,25.913S290.874,367.239,288.448,352.58Z" transform="translate(-26.481 12.711)" fill="#7550fd"/>
      <path id="Path_106" data-name="Path 106" d="M278.57,352.58h2.923a12.774,12.774,0,0,1,1.578,7.834c-.351,3.946-2.733,9.091-4.487,9.091s-4.136-5.145-4.487-9.091a12.892,12.892,0,0,1,1.578-7.834H278.6" transform="translate(-25.094 12.711)" fill="#fff"/>
      <path id="Path_107" data-name="Path 107" d="M291.7,343.9l-1.374-5.846h-19l-1.359,5.846a7.059,7.059,0,0,0,3.172,6.212,11.02,11.02,0,0,0,2.675,1.461,14.265,14.265,0,0,0,10.143,0,10.726,10.726,0,0,0,2.6-1.461A7.045,7.045,0,0,0,291.7,343.9Z" transform="translate(-26.961 6.005)" fill="#7550fd"/>
      <path id="Path_108" data-name="Path 108" d="M292.79,342.84l.132.57.585,2.514a7.775,7.775,0,0,1-3.464,6.489,12.193,12.193,0,0,1-2.923,1.564,15.594,15.594,0,0,1-11.005,0,12.279,12.279,0,0,1-2.923-1.593,7.8,7.8,0,0,1-3.478-6.5l-1.593,6.854h0a7.819,7.819,0,0,0,3.946,6.372,13.605,13.605,0,0,0,3.435,1.666,19.5,19.5,0,0,0,12.247,0,14.774,14.774,0,0,0,3.376-1.652,7.819,7.819,0,0,0,3.946-6.372Z" transform="translate(-27.813 8.216)" fill="#7550fd"/>
      <path id="Path_109" data-name="Path 109" d="M292.425,343.775l-.132-.57-.263-1.155a7.045,7.045,0,0,1-3.186,6.211,10.726,10.726,0,0,1-2.6,1.462,14.265,14.265,0,0,1-10.143,0,11.021,11.021,0,0,1-2.674-1.462,7.059,7.059,0,0,1-3.172-6.211l-.994,4.224a7.8,7.8,0,0,0,3.478,6.5,12.272,12.272,0,0,0,2.923,1.593,15.594,15.594,0,0,0,11.005,0,12.186,12.186,0,0,0,2.923-1.564,7.775,7.775,0,0,0,3.464-6.489Z" transform="translate(-27.287 7.851)" fill="#455a64"/>
      <path id="Path_110" data-name="Path 110" d="M280.951,347.491a47.749,47.749,0,0,0,11.429-1.359l-.117-.512-.132-.57-.263-1.155L290.5,338.05h-19l-1.359,5.846-.526,2.251a48.232,48.232,0,0,0,11.341,1.345Z" transform="translate(-27.125 6.005)" opacity="0.15"/>
      <path id="Path_111" data-name="Path 111" d="M290.122,345.624l53.36-19.643a53.829,53.829,0,0,0-.234-6.854,15.637,15.637,0,0,0-.234-2.046c-.088-.672-.2-1.3-.336-1.915s-.292-1.286-.468-1.885c-.088-.322-.19-.614-.292-.921s-.132-.468-.219-.687h0a15.521,15.521,0,0,0-7-8.769l-6.84-3.932-.731-.438a19.54,19.54,0,0,0-6.986-2.207,63.708,63.708,0,0,1-15.244-3.668,19.276,19.276,0,0,1-3.858-4.3c-5.2-7.951-6.518-25.036-6.182-33.527L293.4,283.8c-5.115-8.038-6.4-24.846-6.08-33.352l-4.706,90.8,7.951-2.923v.234Z" transform="translate(-21.125 -34.423)" fill="#7550fd"/>
      <path id="Path_112" data-name="Path 112" d="M341.11,324.6l-53.36,19.643.38-7.059v-.234l2.908-54.529L292.5,253.45c-.336,8.492.979,25.577,6.182,33.527a19.28,19.28,0,0,0,3.858,4.3c5.261,4.384,13.154,6.723,22.814,8.038a21.806,21.806,0,0,1,2.923.57,18.148,18.148,0,0,1,4.078,1.637,15.521,15.521,0,0,1,7,8.769h0c.088.219.146.453.219.687s.2.6.292.921c.175.6.322,1.228.468,1.885s.234,1.257.336,1.915.175,1.345.234,2.046a53.844,53.844,0,0,1,.2,6.855Z" transform="translate(-18.753 -33.039)" fill="#7550fd"/>
      <path id="Path_113" data-name="Path 113" d="M327.655,289.575a18.148,18.148,0,0,0-4.078-1.637,21.813,21.813,0,0,0-2.923-.57c-9.719-1.315-17.538-3.625-22.814-8.038A63.713,63.713,0,0,0,313.084,283a19.543,19.543,0,0,1,6.986,2.207l.731.438Z" transform="translate(-14.096 -21.095)" opacity="0.35"/>
      <path id="Path_114" data-name="Path 114" d="M288.438,311.047l50.788-18.707a32.038,32.038,0,0,1,1.549,7.468L288,319.232Z" transform="translate(-18.638 -15.091)" fill="#455a64"/>
      <path id="Path_115" data-name="Path 115" d="M326.094,259.519a33.442,33.442,0,0,0-.658-8.1c-5.086-23.823-19.321-43.378-27.535-56.049-1.462-2.309-4.721-7.571-6.065-8.491a4.794,4.794,0,0,0-2.748-.862,4.867,4.867,0,0,0-2.762.862c-1.33.921-4.516,6.211-6.065,8.491-7.571,11.151-22.449,32.226-27.52,56.049a33.455,33.455,0,0,0-.672,8.1L256.7,392.853h0c0,6.635,6.065,13.27,18.21,16.88a50,50,0,0,0,28.339,0c12.145-3.61,18.225-10.231,18.225-16.88h0Z" transform="translate(-35.232 -64.159)" fill="#7550fd"/>
      <path id="Path_116" data-name="Path 116" d="M326.094,259.519a33.442,33.442,0,0,0-.658-8.1c-5.086-23.823-19.321-43.378-27.535-56.049-1.462-2.309-4.721-7.571-6.065-8.491a4.794,4.794,0,0,0-2.748-.862,4.867,4.867,0,0,0-2.762.862c-1.33.921-4.516,6.211-6.065,8.491-7.571,11.151-22.449,32.226-27.52,56.049a33.455,33.455,0,0,0-.672,8.1L256.7,392.853h0c0,6.635,6.065,13.27,18.21,16.88a50,50,0,0,0,28.339,0c12.145-3.61,18.225-10.231,18.225-16.88h0Z" transform="translate(-35.232 -64.159)" fill="#fff" opacity="0.5"/>
      <path id="Path_117" data-name="Path 117" d="M307.386,390.513h0L312,257.18a34.184,34.184,0,0,0-.658-8.1c-5.086-23.823-19.321-43.378-27.535-56.049l-1.242-1.944c6.738,17.129,17.392,44.576,18.079,83,.409,22.683-1.213,83.5-2.6,129.549C304.259,399.955,307.386,395.263,307.386,390.513Z" transform="translate(-21.144 -61.819)" fill="#fff" opacity="0.5"/>
      <path id="Path_118" data-name="Path 118" d="M274.654,195.369c-2.777,4.092-6.562,9.558-10.464,15.989,3.844,2.572,9.032,6.518,19.292,6.518A29.23,29.23,0,0,0,302.7,211.46c-3.771-6.153-7.468-11.575-10.406-16.077-1.462-2.309-4.721-7.571-6.065-8.491a4.794,4.794,0,0,0-2.748-.862,4.867,4.867,0,0,0-2.762.862C279.39,187.8,276.2,193.089,274.654,195.369Z" transform="translate(-29.626 -64.154)" fill="#37474f"/>
      <path id="Path_119" data-name="Path 119" d="M282.57,191.09c2.265,5.729,4.955,12.657,7.571,20.724,1.462-.877,2.835-1.812,4.078-2.689-2.923-4.794-5.846-9.105-8.331-12.92l-2.075-3.171-.833-1.315Z" transform="translate(-21.144 -61.819)" fill="#455a64"/>
      <path id="Path_120" data-name="Path 120" d="M272.068,199.163l-.8,1.2-.775,1.169c-.482.7-.965,1.461-1.461,2.192l-.716,1.082-.935,1.462c-.249.365-.5.745-.731,1.14l-.965,1.462c-.5.8-1.008,1.608-1.462,2.441a43.953,43.953,0,0,0,6.986,4.107c5.276-14.878,11.5-29.888,14.615-28.836a5.279,5.279,0,0,0-1.067-.438h-.117a4.21,4.21,0,0,0-1.14-.161,4.867,4.867,0,0,0-2.762.862c-1.33.921-4.516,6.211-6.065,8.491l-1.768,2.6Z" transform="translate(-29.613 -64.177)" fill="#263238"/>
      <path id="Path_121" data-name="Path 121" d="M308.427,219.27a10.523,10.523,0,0,1-.906,7.907,19,19,0,0,1-7.7,7.454,39.068,39.068,0,0,1-12.394,4.385c-5.071.921-9.456,5-9.675,10.143l-.088,2.119c-.219,5.159,3.8,9.4,8.9,8.638a48.229,48.229,0,0,0,16.749-5.539c7.307-4.224,10.888-9.763,10.771-15.287a12.379,12.379,0,0,0-.658-3.815A107.143,107.143,0,0,0,308.427,219.27Z" transform="translate(-23.412 -48.813)" fill="#37474f"/>
      <path id="Path_122" data-name="Path 122" d="M306.807,239.119c-.117-1.023-.263-2.046-.468-3.069-.146-.658-.322-1.3-.468-1.958-.234-.979-.468-1.958-.731-2.923l-.307-1.067c-.292-1.023-.585-2.046-.892-3.055s-.643-1.9-.965-2.835c-.131-.365-.248-.745-.365-1.1-.468-1.286-.95-2.543-1.461-3.785a10.509,10.509,0,0,1-.921,7.819,18.4,18.4,0,0,1-6.811,6.9c.95,6.445,1.637,13.3,1.988,20.578l.614-.307C303.285,250.124,306.88,244.614,306.807,239.119Z" transform="translate(-16.136 -48.786)" fill="#455a64"/>
      <path id="Path_123" data-name="Path 123" d="M316.187,351.5c0-3.04-6.913-37.517-16.954-46.271a3.551,3.551,0,0,0-3.683-.658,8.769,8.769,0,0,0-3.23,2.645,45.92,45.92,0,0,0-9.748,29.069v15.96l14.03,5.408a21.441,21.441,0,0,0,16.281-1.038,5.949,5.949,0,0,0,3.274-5.115Z" transform="translate(-21.146 -9.562)" fill="#7550fd"/>
      <path id="Path_124" data-name="Path 124" d="M311.606,337.324a5.729,5.729,0,0,0,3.113-4.765c-.336-1.578-.745-3.318-1.213-5.159h0a5.466,5.466,0,0,1-3.011,4.706,19.745,19.745,0,0,1-15,.95l-12.92-4.969v5l13.461,5.174a20.534,20.534,0,0,0,15.565-.935Z" transform="translate(-21.139 1.09)" fill="#455a64"/>
      <path id="Path_125" data-name="Path 125" d="M295.594,304.49a8.668,8.668,0,0,0-3.274,2.645,45.965,45.965,0,0,0-9.748,29.084v15.945l14.03,5.408a18.039,18.039,0,0,0,4.048.965C298.122,343.132,292.832,308.568,295.594,304.49Z" transform="translate(-21.146 -9.483)" opacity="0.25"/>
      <path id="Path_126" data-name="Path 126" d="M299.257,338.881c-.263-1.7-.541-3.464-.8-5.276a14.792,14.792,0,0,1-2.923-.745l-12.92-4.969v5l13.46,5.174A16.167,16.167,0,0,0,299.257,338.881Z" transform="translate(-21.125 1.316)" fill="#37474f"/>
      <path id="Path_127" data-name="Path 127" d="M235.263,336.855l-12.408-3.215-12.408,3.215a50.423,50.423,0,0,0,.146,17.056c1.622,10.406,8.871,20.827,12.262,20.827s10.654-10.421,12.277-20.827a50.13,50.13,0,0,0,.132-17.056Z" transform="translate(-54.732 3.97)" fill="#7550fd"/>
      <path id="Path_128" data-name="Path 128" d="M235.263,336.855l-12.408-3.215-12.408,3.215a50.423,50.423,0,0,0,.146,17.056c1.622,10.406,8.871,20.827,12.262,20.827s10.654-10.421,12.277-20.827a50.13,50.13,0,0,0,.132-17.056Z" transform="translate(-54.732 3.97)" fill="#fff" opacity="0.7"/>
      <path id="Path_129" data-name="Path 129" d="M229.8,336.86H212.816c-2.426,14.615,5.364,25.927,8.491,25.927S232.3,351.534,229.8,336.86Z" transform="translate(-53.549 5.456)" fill="#7550fd"/>
      <path id="Path_130" data-name="Path 130" d="M219.92,336.86h2.923a12.934,12.934,0,0,1,1.578,7.834c-.351,3.961-2.733,9.105-4.487,9.105s-4.136-5.144-4.487-9.105a12.818,12.818,0,0,1,1.578-7.834h2.923" transform="translate(-52.163 5.456)" fill="#fff"/>
      <path id="Path_131" data-name="Path 131" d="M233.045,328.186l-1.359-5.846h-19l-1.374,5.846A7.088,7.088,0,0,0,214.5,334.4a11.443,11.443,0,0,0,2.66,1.462,14.381,14.381,0,0,0,10.158,0,11.254,11.254,0,0,0,2.6-1.462A7.044,7.044,0,0,0,233.045,328.186Z" transform="translate(-54.033 -1.245)" fill="#7550fd"/>
      <path id="Path_132" data-name="Path 132" d="M234.17,327.13l.132.57.585,2.514a7.775,7.775,0,0,1-3.478,6.474,12.685,12.685,0,0,1-2.923,1.578,15.594,15.594,0,0,1-11.005,0,11.791,11.791,0,0,1-2.923-1.593,7.761,7.761,0,0,1-3.478-6.489l-1.608,6.855h0a7.819,7.819,0,0,0,3.946,6.372,14.381,14.381,0,0,0,3.435,1.666,19.644,19.644,0,0,0,12.262,0,14.385,14.385,0,0,0,3.361-1.652,7.79,7.79,0,0,0,3.946-6.372Z" transform="translate(-54.88 0.965)" fill="#7550fd"/>
      <path id="Path_133" data-name="Path 133" d="M233.775,328.065l-.132-.57-.278-1.155a7.044,7.044,0,0,1-3.172,6.211,11.257,11.257,0,0,1-2.6,1.462,14.382,14.382,0,0,1-10.158,0,11.446,11.446,0,0,1-2.66-1.462,7.088,7.088,0,0,1-3.186-6.211l-.979,4.224a7.761,7.761,0,0,0,3.478,6.489,11.794,11.794,0,0,0,2.923,1.593,15.594,15.594,0,0,0,11.005,0,12.69,12.69,0,0,0,2.923-1.578,7.775,7.775,0,0,0,3.478-6.474Z" transform="translate(-54.354 0.601)" fill="#455a64"/>
      <path id="Path_134" data-name="Path 134" d="M222.321,334.31c4.034,0,9.821-1.286,11.414-3.888l-.117-.511-.132-.57-.278-1.155-1.359-5.846h-19l-1.374,5.846-.526,2.251C212.017,333.141,218.331,334.31,222.321,334.31Z" transform="translate(-54.197 -1.245)" opacity="0.15"/>
      <path id="Path_135" data-name="Path 135" d="M220.988,161.7a2.149,2.149,0,0,1,1.169.336,54.24,54.24,0,0,1,4.458,5.671c3.142,4.75,9.748,14.147,12.072,24.086a13.223,13.223,0,0,1,.336,3.391c4.034,70.3,1.242,121.218.146,200.49h0c0,2.777-2.441,5.6-7.5,7.22a21.007,21.007,0,0,1-5.919.979,21.457,21.457,0,0,1-5.934-.745c-5.13-1.462-7.731-4.151-7.775-6.928h0c-4.487-79.155-9-129.943-7.746-200.33a14.015,14.015,0,0,1,.219-3.405c1.929-10.026,8.155-19.672,11.108-24.553a55.848,55.848,0,0,1,4.238-5.846,2.178,2.178,0,0,1,1.155-.38Z" transform="translate(-57.366 -75.387)" fill="#455a64"/>
      <path id="Path_136" data-name="Path 136" d="M226.593,402.553c4.618-1.637,6.913-4.385,6.869-6.986h0c1.1-79.272,3.888-130.192-.146-200.49a13.223,13.223,0,0,0-.336-3.391c-2.324-9.938-8.93-19.336-12.072-24.086a54.237,54.237,0,0,0-4.458-5.671c5.364,12.744,8.17,34.229,9.149,72.8C226.3,261.868,226.52,351.693,226.593,402.553Z" transform="translate(-51.659 -75.276)" fill="#37474f"/>
      <path id="Path_137" data-name="Path 137" d="M234.755,195.583a11.385,11.385,0,0,0,4.589-4.385c-.1-2.09-.219-4.195-.336-6.328a12.233,12.233,0,0,1-4.253,3.829c-7.308,4.195-19,4.195-26.307,0a12.642,12.642,0,0,1-4.165-3.712v.234c0,2.221,0,4.385-.1,6.591a12.116,12.116,0,0,0,4.268,3.815C215.7,199.792,227.491,199.792,234.755,195.583Z" transform="translate(-57.322 -64.689)" fill="#7550fd"/>
      <path id="Path_138" data-name="Path 138" d="M209.263,199.234a6.387,6.387,0,0,1,2.923,5.013c0,1.841-1.3,2.587-2.923,1.666a6.416,6.416,0,0,1-2.923-5.013C206.369,199.073,207.67,198.313,209.263,199.234Z" transform="translate(-56.325 -58.241)" fill="#7550fd"/>
      <path id="Path_139" data-name="Path 139" d="M209.123,207.348a6.051,6.051,0,0,1,2.748,4.75c0,1.754-1.228,2.455-2.748,1.578a6.051,6.051,0,0,1-2.733-4.75C206.39,207.188,207.618,206.471,209.123,207.348Z" transform="translate(-56.302 -54.488)" fill="#7550fd"/>
      <path id="Path_140" data-name="Path 140" d="M209.177,215.46a5.846,5.846,0,0,1,2.6,4.5c0,1.651-1.169,2.324-2.6,1.462a5.7,5.7,0,0,1-2.587-4.487C206.59,215.314,207.745,214.642,209.177,215.46Z" transform="translate(-56.209 -50.733)" fill="#7550fd"/>
      <path id="Path_141" data-name="Path 141" d="M209.351,223.574a5.408,5.408,0,0,1,2.455,4.238c0,1.564-1.1,2.192-2.455,1.462a5.408,5.408,0,0,1-2.441-4.224C206.91,223.428,208.006,222.873,209.351,223.574Z" transform="translate(-56.062 -46.964)" fill="#7550fd"/>
      <path id="Path_142" data-name="Path 142" d="M209.615,231.708a5.1,5.1,0,0,1,2.295,3.975c0,1.462-1.038,2.061-2.295,1.33a5.057,5.057,0,0,1-2.295-3.975C207.32,231.577,208.314,230.978,209.615,231.708Z" transform="translate(-55.873 -43.217)" fill="#7550fd"/>
      <path id="Path_143" data-name="Path 143" d="M209.908,239.833a4.735,4.735,0,0,1,2.148,3.712c0,1.374-.965,1.915-2.148,1.242a4.764,4.764,0,0,1-2.148-3.727C207.76,239.7,208.725,239.146,209.908,239.833Z" transform="translate(-55.67 -39.459)" fill="#7550fd"/>
      <path id="Path_144" data-name="Path 144" d="M210.188,247.947a4.385,4.385,0,0,1,2,3.449c0,1.286-.891,1.8-2,1.155A4.385,4.385,0,0,1,208.2,249.1C208.2,247.83,209.092,247.3,210.188,247.947Z" transform="translate(-55.466 -35.705)" fill="#7550fd"/>
      <path id="Path_145" data-name="Path 145" d="M281.044,357.985,227.7,399.945l-7.541-4.384c-.409-15.448,4.6-29.1,15.784-43.509,4.75-6.138,9.12-11.853,13.037-17.26a187.156,187.156,0,0,0,15.463-24.334c6.431-12.686,8.024-29.333,7.921-38.087a5.817,5.817,0,0,0,0-.877v-.833l4,1.958Z" transform="translate(-49.959 -25.096)" fill="#7550fd"/>
      <path id="Path_146" data-name="Path 146" d="M270.156,313.307c-4.779,12.818-14.177,27.009-26.673,43.129-11.181,14.425-16.194,28.046-15.784,43.509l-7.541-4.384c-.409-15.448,4.6-29.1,15.784-43.509,4.75-6.138,9.12-11.853,13.037-17.26a187.156,187.156,0,0,0,15.463-24.334c6.431-12.686,8.024-29.333,7.921-38.087a5.817,5.817,0,0,0,0-.877v-.833l4,1.958C276.659,280.744,275.359,299.335,270.156,313.307Z" transform="translate(-49.959 -25.096)" opacity="0.35"/>
      <path id="Path_147" data-name="Path 147" d="M221.812,345a59.238,59.238,0,0,0-1.462,9.222l7.527,4.385v-.234a59.339,59.339,0,0,1,1.461-8.93h0Z" transform="translate(-49.859 9.213)" fill="#37474f"/>
      <path id="Path_148" data-name="Path 148" d="M273.957,272c.322,8.111-.979,26.716-6.182,40.674C263,325.506,253.6,339.7,241.1,355.8c-11.181,14.41-16.208,28.061-15.784,43.509l53.345-41.96Z" transform="translate(-47.578 -24.478)" fill="#7550fd"/>
      <path id="Path_149" data-name="Path 149" d="M277.8,320.62,227,360.636a56.175,56.175,0,0,0-1.549,9.237l52.775-41.507Z" transform="translate(-47.505 -2.039)" fill="#455a64"/>
      <path id="Path_150" data-name="Path 150" d="M397.3,436.477a18.9,18.9,0,1,0-37.795,0,3.075,3.075,0,0,0,0,.526,3.256,3.256,0,0,0,0,.526c.2,2.616,2.046,5.188,5.525,7.191,7.381,4.268,19.365,4.268,26.746,0,3.464-2,5.305-4.575,5.525-7.191V437C397.3,436.828,397.313,436.653,397.3,436.477Z" transform="translate(14.357 42.709)" fill="#7550fd"/>
      <path id="Path_151" data-name="Path 151" d="M397.3,436.477a18.9,18.9,0,1,0-37.795,0,3.075,3.075,0,0,0,0,.526,3.256,3.256,0,0,0,0,.526c.2,2.616,2.046,5.188,5.525,7.191,7.381,4.268,19.365,4.268,26.746,0,3.464-2,5.305-4.575,5.525-7.191V437C397.3,436.828,397.313,436.653,397.3,436.477Z" transform="translate(14.357 42.709)" fill="#fff" opacity="0.5"/>
      <path id="Path_152" data-name="Path 152" d="M386.56,419.815h0a18.883,18.883,0,0,0-27.1,16.5,3.084,3.084,0,0,0,0,.526,3.256,3.256,0,0,0,0,.526c.2,2.616,2.046,5.188,5.525,7.191a24.846,24.846,0,0,0,9.485,2.923c-4.911-.833-8.082-6.314-6.562-12.364C369.709,428.131,376.8,418.032,386.56,419.815Z" transform="translate(14.338 42.871)" fill="#fff" opacity="0.5"/>
      <path id="Path_153" data-name="Path 153" d="M396.815,435.877v-1.052A18.838,18.838,0,0,0,390.4,421.16c2.046,2.1,6.621,10.07,1.651,16.077-3.259,3.99-18.766,9.69-31.51,2.368a13.155,13.155,0,0,0,4,3.405c7.381,4.268,19.365,4.268,26.746,0C394.827,441.066,396.6,438.464,396.815,435.877Z" transform="translate(14.84 44.362)" fill="#7550fd" opacity="0.2"/>
      <path id="Path_154" data-name="Path 154" d="M375.619,421.435c.848,1.929-.775,4.5-3.625,5.758s-5.846.7-6.694-1.228.775-4.5,3.625-5.744S374.786,419.506,375.619,421.435Z" transform="translate(16.934 43.619)" fill="#fff" opacity="0.5"/>
      <path id="Path_155" data-name="Path 155" d="M366.031,426.6a2.236,2.236,0,0,1-1.461,2.792,2.031,2.031,0,1,1,1.462-2.792Z" transform="translate(15.575 46.303)" fill="#fff" opacity="0.5"/>
      <path id="Path_156" data-name="Path 156" d="M382,448.255a26.03,26.03,0,0,0-52.045,0c0,.249,0,.468,0,.716v.731c.292,3.6,2.835,7.132,7.615,9.909,10.158,5.846,26.658,5.846,36.845,0,4.75-2.777,7.308-6.314,7.585-9.909a6.094,6.094,0,0,0,0-.731,5.847,5.847,0,0,0,0-.716Z" transform="translate(0.727 45.138)" fill="#7550fd"/>
      <path id="Path_157" data-name="Path 157" d="M382,448.255a26.03,26.03,0,0,0-52.045,0c0,.249,0,.468,0,.716v.731c.292,3.6,2.835,7.132,7.615,9.909,10.158,5.846,26.658,5.846,36.845,0,4.75-2.777,7.308-6.314,7.585-9.909a6.094,6.094,0,0,0,0-.731,5.847,5.847,0,0,0,0-.716Z" transform="translate(0.727 45.138)" fill="#fff" opacity="0.6"/>
      <path id="Path_158" data-name="Path 158" d="M367.254,425.493h0A25.986,25.986,0,0,0,330,448.22c0,.248,0,.468,0,.716v.731c.292,3.6,2.835,7.132,7.614,9.909a34.7,34.7,0,0,0,13.066,4.063c-6.752-1.155-11.122-8.7-9.047-17.027C343.987,436.951,353.75,423.038,367.254,425.493Z" transform="translate(0.746 45.173)" fill="#fff" opacity="0.5"/>
      <path id="Path_159" data-name="Path 159" d="M381.344,447.621a6.088,6.088,0,0,0,0-.731,5.835,5.835,0,0,0,0-.716A25.883,25.883,0,0,0,372.5,427.35c2.835,2.923,9.12,13.87,2.295,22.23-4.5,5.5-25.84,13.329-43.407,3.259a18.313,18.313,0,0,0,5.525,4.691c10.158,5.846,26.658,5.846,36.845,0C378.509,454.753,381.052,451.216,381.344,447.621Z" transform="translate(1.387 47.218)" fill="#7550fd" opacity="0.1"/>
      <path id="Path_160" data-name="Path 160" d="M352.168,427.744c1.169,2.645-1.067,6.2-5,7.921s-8.053.979-9.222-1.681,1.082-6.2,5.013-7.921S351.014,425.084,352.168,427.744Z" transform="translate(4.271 46.196)" fill="#fff" opacity="0.3"/>
      <path id="Path_161" data-name="Path 161" d="M339.231,434.8a3.42,3.42,0,1,1-4.165-1.155A3.1,3.1,0,0,1,339.231,434.8Z" transform="translate(2.14 49.945)" fill="#fff" opacity="0.3"/>
      <path id="Path_162" data-name="Path 162" d="M354.219,456.457a32.314,32.314,0,0,0-64.6,0v1.8c.365,4.472,3.522,8.857,9.456,12.291,12.6,7.307,33.089,7.307,45.716,0,5.846-3.435,9.061-7.819,9.427-12.291v-.906C354.219,457.042,354.248,456.764,354.219,456.457Z" transform="translate(-17.89 46.187)" fill="#7550fd"/>
      <path id="Path_163" data-name="Path 163" d="M354.219,456.457a32.314,32.314,0,0,0-64.6,0v1.8c.365,4.472,3.522,8.857,9.456,12.291,12.6,7.307,33.089,7.307,45.716,0,5.846-3.435,9.061-7.819,9.427-12.291v-.906C354.219,457.042,354.248,456.764,354.219,456.457Z" transform="translate(-17.89 46.187)" fill="#fff" opacity="0.8"/>
      <path id="Path_164" data-name="Path 164" d="M335.935,428.275h0a32.285,32.285,0,0,0-46.315,28.207c0,.307,0,.585,0,.892v.906c.365,4.472,3.522,8.857,9.456,12.291a43.057,43.057,0,0,0,16.208,5.057c-8.375-1.462-13.8-10.8-11.224-21.133C307.056,442.51,319.172,425.177,335.935,428.275Z" transform="translate(-17.89 46.162)" fill="#fff" opacity="0.3"/>
      <path id="Path_165" data-name="Path 165" d="M353.4,455.742v-1.8a32.154,32.154,0,0,0-10.961-23.384c3.508,3.61,11.312,17.217,2.821,27.579-5.568,6.825-32.066,16.559-53.857,4.048a22.638,22.638,0,0,0,6.854,5.846c12.6,7.308,33.089,7.308,45.716,0C349.875,464.6,353.032,460.214,353.4,455.742Z" transform="translate(-17.069 48.7)" fill="#7550fd" opacity="0.1"/>
      <path id="Path_166" data-name="Path 166" d="M317.2,431.019c1.461,3.288-1.345,7.7-6.211,9.836s-10,1.213-11.444-2.09,1.33-7.688,6.211-9.836S315.749,427.789,317.2,431.019Z" transform="translate(-13.488 47.422)" fill="#fff" opacity="0.3"/>
      <path id="Path_167" data-name="Path 167" d="M301.127,439.821a4.238,4.238,0,1,1-5.174-1.462,3.829,3.829,0,0,1,5.174,1.461Z" transform="translate(-16.141 52.08)" fill="#fff" opacity="0.3"/>
      <path id="Path_168" data-name="Path 168" d="M403.511,437.144a11.414,11.414,0,0,0-22.829,0,2.309,2.309,0,0,0,0,.322,2.193,2.193,0,0,0,0,.307,5.847,5.847,0,0,0,3.332,4.384,17.889,17.889,0,0,0,16.135.044,5.846,5.846,0,0,0,3.332-4.384,2.155,2.155,0,0,0,0-.307A2.262,2.262,0,0,0,403.511,437.144Z" transform="translate(24.133 46.471)" fill="#7550fd"/>
      <path id="Path_169" data-name="Path 169" d="M403.511,437.144a11.414,11.414,0,0,0-22.829,0,2.309,2.309,0,0,0,0,.322,2.193,2.193,0,0,0,0,.307,5.847,5.847,0,0,0,3.332,4.384,17.889,17.889,0,0,0,16.135.044,5.846,5.846,0,0,0,3.332-4.384,2.155,2.155,0,0,0,0-.307A2.262,2.262,0,0,0,403.511,437.144Z" transform="translate(24.133 46.471)" fill="#fff" opacity="0.2"/>
      <path id="Path_170" data-name="Path 170" d="M397.051,427.081h0a11.4,11.4,0,0,0-16.369,9.968,2.294,2.294,0,0,0,0,.322,2.165,2.165,0,0,0,0,.307,5.846,5.846,0,0,0,3.332,4.384,15.317,15.317,0,0,0,5.729,1.783c-2.923-.512-4.881-3.815-3.961-7.468C386.835,432.108,391.117,426.028,397.051,427.081Z" transform="translate(24.133 46.567)" fill="#fff" opacity="0.5"/>
      <path id="Path_171" data-name="Path 171" d="M403.209,436.806a2.173,2.173,0,0,0,0-.307,2.27,2.27,0,0,0,0-.322,11.37,11.37,0,0,0-3.873-8.258c1.242,1.271,4,6.08.994,9.748-1.973,2.411-11.327,5.846-19,1.462a8.052,8.052,0,0,0,2.441,2.061,17.889,17.889,0,0,0,16.077,0A5.846,5.846,0,0,0,403.209,436.806Z" transform="translate(24.435 47.481)" fill="#455a64" opacity="0.05"/>
      <path id="Path_172" data-name="Path 172" d="M390.423,428.064c.512,1.155-.468,2.718-2.192,3.478s-3.537.424-4.048-.745.468-2.718,2.192-3.478S389.912,426.895,390.423,428.064Z" transform="translate(25.689 47.016)" fill="#fff" opacity="0.3"/>
      <path id="Path_173" data-name="Path 173" d="M384.725,431.154a1.462,1.462,0,1,1-1.827-.512,1.359,1.359,0,0,1,1.827.512Z" transform="translate(24.767 48.661)" fill="#fff" opacity="0.3"/>
      <path id="Path_174" data-name="Path 174" d="M114.642,430.1a18.9,18.9,0,0,1,37.795,0,3.259,3.259,0,0,1,0,.526,3.091,3.091,0,0,1,0,.526c-.2,2.616-2.046,5.188-5.525,7.205-7.381,4.253-19.365,4.253-26.746,0-3.464-2.017-5.305-4.589-5.525-7.205v-.526C114.642,430.433,114.627,430.287,114.642,430.1Z" transform="translate(-98.648 39.765)" fill="#7550fd"/>
      <path id="Path_175" data-name="Path 175" d="M114.642,430.1a18.9,18.9,0,0,1,37.795,0,3.259,3.259,0,0,1,0,.526,3.091,3.091,0,0,1,0,.526c-.2,2.616-2.046,5.188-5.525,7.205-7.381,4.253-19.365,4.253-26.746,0-3.464-2.017-5.305-4.589-5.525-7.205v-.526C114.642,430.433,114.627,430.287,114.642,430.1Z" transform="translate(-98.648 39.765)" fill="#fff" opacity="0.5"/>
      <path id="Path_176" data-name="Path 176" d="M122,413.435h0a18.883,18.883,0,0,1,27.1,16.5,3.262,3.262,0,0,1,0,.526,3.073,3.073,0,0,1,0,.526c-.2,2.616-2.046,5.188-5.525,7.205a25.344,25.344,0,0,1-9.485,2.923c4.911-.848,8.082-6.314,6.577-12.364C138.851,421.765,131.763,411.622,122,413.435Z" transform="translate(-95.249 39.927)" fill="#fff" opacity="0.5"/>
      <path id="Path_177" data-name="Path 177" d="M114.64,429.493v-1.052a18.8,18.8,0,0,1,6.416-13.651c-2.046,2.1-6.621,10.07-1.652,16.077,3.259,3.99,18.766,9.675,31.51,2.368a13.3,13.3,0,0,1-4,3.405c-7.381,4.253-19.365,4.253-26.746,0C116.7,434.681,114.859,432.109,114.64,429.493Z" transform="translate(-98.646 41.422)" fill="#7550fd" opacity="0.2"/>
      <path id="Path_178" data-name="Path 178" d="M127.781,415.07c-.848,1.929.775,4.5,3.625,5.758s5.846.7,6.694-1.228-.775-4.5-3.625-5.758S128.614,413.141,127.781,415.07Z" transform="translate(-92.685 40.674)" fill="#fff" opacity="0.3"/>
      <path id="Path_179" data-name="Path 179" d="M135.345,420.181a2.485,2.485,0,1,0,3.025-.833,2.251,2.251,0,0,0-3.025.833Z" transform="translate(-89.302 43.397)" fill="#fff" opacity="0.3"/>
      <path id="Path_180" data-name="Path 180" d="M153.323,431.238a27.418,27.418,0,0,1,54.821,0v1.535c-.307,3.785-2.923,7.512-8.024,10.421-10.7,6.2-28.076,6.2-38.8,0-5.013-2.923-7.688-6.635-7.994-10.421a6.853,6.853,0,0,1,0-.775,6.6,6.6,0,0,1,0-.76Z" transform="translate(-80.798 36.651)" fill="#7550fd"/>
      <path id="Path_181" data-name="Path 181" d="M153.323,431.238a27.418,27.418,0,0,1,54.821,0v1.535c-.307,3.785-2.923,7.512-8.024,10.421-10.7,6.2-28.076,6.2-38.8,0-5.013-2.923-7.688-6.635-7.994-10.421a6.853,6.853,0,0,1,0-.775,6.6,6.6,0,0,1,0-.76Z" transform="translate(-80.798 36.651)" fill="#fff" opacity="0.7"/>
      <path id="Path_182" data-name="Path 182" d="M163.93,407.262h0a27.4,27.4,0,0,1,39.315,23.94v1.535c-.307,3.785-2.923,7.512-8.024,10.421a36.26,36.26,0,0,1-13.753,4.3c7.1-1.228,11.692-9.164,9.529-17.933C188.454,419.348,178.165,404.646,163.93,407.262Z" transform="translate(-75.898 36.688)" fill="#fff" opacity="0.3"/>
      <path id="Path_183" data-name="Path 183" d="M153.323,430.573a6.856,6.856,0,0,1,0-.775,6.6,6.6,0,0,1,0-.76,27.257,27.257,0,0,1,9.31-19.818c-2.923,3.069-9.617,14.615-2.411,23.384,4.735,5.846,27.213,14.045,45.716,3.435a19.088,19.088,0,0,1-5.846,4.925c-10.7,6.2-28.076,6.2-38.8,0C156.3,438.129,153.63,434.358,153.323,430.573Z" transform="translate(-80.798 38.851)" fill="#7550fd" opacity="0.1"/>
      <path id="Path_184" data-name="Path 184" d="M172.362,409.626c-1.228,2.792,1.14,6.533,5.276,8.345s8.477,1.023,9.7-1.768-1.125-6.533-5.261-8.345S173.59,406.834,172.362,409.626Z" transform="translate(-72.156 37.773)" fill="#fff" opacity="0.5"/>
      <path id="Path_185" data-name="Path 185" d="M183.336,417.066a3.6,3.6,0,1,0,4.385-1.228,3.245,3.245,0,0,0-4.385,1.228Z" transform="translate(-67.243 41.718)" fill="#fff" opacity="0.5"/>
      <path id="Path_186" data-name="Path 186" d="M136.8,441.815a26.03,26.03,0,0,1,52.044,0,6.112,6.112,0,0,1,0,.731,5.838,5.838,0,0,1,0,.716c-.292,3.61-2.835,7.147-7.615,9.909-10.157,5.846-26.658,5.846-36.83,0-4.765-2.762-7.308-6.3-7.6-9.909a5.839,5.839,0,0,1,0-.716,6.114,6.114,0,0,1,0-.731Z" transform="translate(-88.422 42.166)" fill="#7550fd"/>
      <path id="Path_187" data-name="Path 187" d="M136.8,441.815a26.03,26.03,0,0,1,52.044,0,6.112,6.112,0,0,1,0,.731,5.838,5.838,0,0,1,0,.716c-.292,3.61-2.835,7.147-7.615,9.909-10.157,5.846-26.658,5.846-36.83,0-4.765-2.762-7.308-6.3-7.6-9.909a5.839,5.839,0,0,1,0-.716,6.114,6.114,0,0,1,0-.731Z" transform="translate(-88.422 42.166)" fill="#fff" opacity="0.6"/>
      <path id="Path_188" data-name="Path 188" d="M146.88,419.072h0a25.986,25.986,0,0,1,37.312,22.712,6.113,6.113,0,0,1,0,.731,5.846,5.846,0,0,1,0,.716c-.292,3.61-2.835,7.147-7.615,9.909a34.464,34.464,0,0,1-13.066,4.078c6.752-1.169,11.122-8.769,9.047-17.027C170.147,430.53,160.384,416.573,146.88,419.072Z" transform="translate(-83.766 42.197)" fill="#fff" opacity="0.5"/>
      <path id="Path_189" data-name="Path 189" d="M136.8,441.177a5.841,5.841,0,0,1,0-.716,6.113,6.113,0,0,1,0-.731,25.854,25.854,0,0,1,8.769-18.81c-2.835,2.923-9.12,13.87-2.295,22.215,4.5,5.5,25.84,13.344,43.407,3.259a17.918,17.918,0,0,1-5.525,4.691c-10.157,5.846-26.658,5.846-36.83,0C139.639,448.323,137.1,444.786,136.8,441.177Z" transform="translate(-88.422 44.251)" fill="#7550fd" opacity="0.15"/>
      <path id="Path_190" data-name="Path 190" d="M154.888,421.3c-1.169,2.66,1.067,6.211,5,7.936s8.053.965,9.222-1.681-1.082-6.211-5.013-7.936S156.043,418.657,154.888,421.3Z" transform="translate(-80.214 43.225)" fill="#fff" opacity="0.3"/>
      <path id="Path_191" data-name="Path 191" d="M165.3,428.355a3.42,3.42,0,1,0,4.165-1.155,3.1,3.1,0,0,0-4.165,1.155Z" transform="translate(-75.556 46.973)" fill="#fff" opacity="0.3"/>
      <path id="Path_192" data-name="Path 192" d="M169.814,454.089a32.3,32.3,0,1,1,64.592,0c-.007.307-.007.585-.007.906v.892c-.365,4.472-3.508,8.857-9.456,12.291-12.6,7.307-33.074,7.307-45.716,0-5.846-3.435-9.047-7.819-9.412-12.291V455C169.814,454.689,169.785,454.4,169.814,454.089Z" transform="translate(-73.188 44.652)" fill="#7550fd"/>
      <path id="Path_193" data-name="Path 193" d="M169.814,454.089a32.3,32.3,0,1,1,64.592,0c-.007.307-.007.585-.007.906v.892c-.365,4.472-3.508,8.857-9.456,12.291-12.6,7.307-33.074,7.307-45.716,0-5.846-3.435-9.047-7.819-9.412-12.291V455C169.814,454.689,169.785,454.4,169.814,454.089Z" transform="translate(-73.188 44.652)" fill="#fff" opacity="0.8"/>
      <path id="Path_194" data-name="Path 194" d="M182.31,425.62h0a32.255,32.255,0,0,1,46.315,28.193v1.8c-.365,4.472-3.508,8.857-9.456,12.291a42.968,42.968,0,0,1-16.208,5.071c8.389-1.462,13.811-10.8,11.224-21.133C211.2,439.841,199.088,422.522,182.31,425.62Z" transform="translate(-67.415 44.929)" fill="#fff" opacity="0.3"/>
      <path id="Path_195" data-name="Path 195" d="M169.81,453.072v-1.8a32.154,32.154,0,0,1,10.961-23.384c-3.508,3.61-11.312,17.2-2.835,27.564,5.583,6.825,32.066,16.559,53.857,4.048a22.259,22.259,0,0,1-6.854,5.846c-12.6,7.308-33.074,7.308-45.716,0C173.318,461.929,170.175,457.544,169.81,453.072Z" transform="translate(-73.184 47.467)" fill="#7550fd" opacity="0.1"/>
      <path id="Path_196" data-name="Path 196" d="M192.253,428.393c-1.462,3.3,1.33,7.7,6.2,9.836s10,1.213,11.444-2.075-1.33-7.7-6.2-9.851S193.7,425.105,192.253,428.393Z" transform="translate(-63.006 46.204)" fill="#fff" opacity="0.3"/>
      <path id="Path_197" data-name="Path 197" d="M205.17,437.15a4.238,4.238,0,1,0,5.174-1.461,3.844,3.844,0,0,0-5.174,1.461Z" transform="translate(-57.216 50.85)" fill="#fff" opacity="0.3"/>
      <path id="Path_198" data-name="Path 198" d="M312.261,456.966a29.493,29.493,0,0,0-58.972,0,11.475,11.475,0,0,0,0,1.637c.336,4.092,3.215,8.1,8.638,11.224,11.5,6.65,30.195,6.65,41.726,0,5.393-3.128,8.272-7.132,8.608-11.224A11.455,11.455,0,0,0,312.261,456.966Z" transform="translate(-34.671 47.578)" fill="#7550fd"/>
      <path id="Path_199" data-name="Path 199" d="M312.261,456.966a29.493,29.493,0,0,0-58.972,0,11.475,11.475,0,0,0,0,1.637c.336,4.092,3.215,8.1,8.638,11.224,11.5,6.65,30.195,6.65,41.726,0,5.393-3.128,8.272-7.132,8.608-11.224A11.455,11.455,0,0,0,312.261,456.966Z" transform="translate(-34.671 47.578)" fill="#fff" opacity="0.9"/>
      <path id="Path_200" data-name="Path 200" d="M295.571,431.168h0a29.464,29.464,0,0,0-42.282,25.752,11.475,11.475,0,0,0,0,1.637c.336,4.092,3.215,8.1,8.638,11.224a39.316,39.316,0,0,0,14.79,4.618c-7.644-1.315-12.6-9.865-10.231-19.292C269.19,444.161,280.254,428.347,295.571,431.168Z" transform="translate(-34.671 47.624)" fill="#fff" opacity="0.5"/>
      <path id="Path_201" data-name="Path 201" d="M311.5,456.25a11.464,11.464,0,0,0,0-1.637,29.377,29.377,0,0,0-10.011-21.324c3.2,3.3,10.333,15.711,2.587,25.182-5.1,6.226-29.23,15.112-49.18,3.7a20.609,20.609,0,0,0,6.27,5.305c11.5,6.65,30.195,6.65,41.726,0C308.289,464.318,311.168,460.313,311.5,456.25Z" transform="translate(-33.914 49.96)" fill="#7550fd" opacity="0.1"/>
      <ellipse id="Ellipse_8" data-name="Ellipse 8" cx="8.798" cy="5.948" rx="8.798" ry="5.948" transform="translate(229.317 484.109) rotate(-23.71)" fill="#fff" opacity="0.5"/>
      <path id="Path_202" data-name="Path 202" d="M263.786,441.7a3.888,3.888,0,1,1-4.721-1.3,3.508,3.508,0,0,1,4.721,1.3Z" transform="translate(-33.067 53.039)" fill="#fff" opacity="0.5"/>
      <path id="Path_203" data-name="Path 203" d="M209.362,458.625a28.061,28.061,0,0,1,56.093,0v1.564c-.322,3.888-3.055,7.7-8.214,10.669-10.947,6.328-28.719,6.328-39.695,0-5.13-2.923-7.863-6.781-8.184-10.669v-.775C209.362,459.151,209.347,458.888,209.362,458.625Z" transform="translate(-54.933 49.119)" fill="#7550fd"/>
      <path id="Path_204" data-name="Path 204" d="M209.362,458.625a28.061,28.061,0,0,1,56.093,0v1.564c-.322,3.888-3.055,7.7-8.214,10.669-10.947,6.328-28.719,6.328-39.695,0-5.13-2.923-7.863-6.781-8.184-10.669v-.775C209.362,459.151,209.347,458.888,209.362,458.625Z" transform="translate(-54.933 49.119)" fill="#fff" opacity="0.9"/>
      <path id="Path_205" data-name="Path 205" d="M220.22,434.185h0a28.017,28.017,0,0,1,40.221,24.48v1.564c-.322,3.888-3.055,7.7-8.214,10.669a37.268,37.268,0,0,1-14.074,4.385c7.308-1.257,11.984-9.383,9.748-18.357C245.314,446.535,234.791,431.5,220.22,434.185Z" transform="translate(-49.919 49.079)" fill="#fff" opacity="0.5"/>
      <path id="Path_206" data-name="Path 206" d="M209.36,458.015v-1.564a27.973,27.973,0,0,1,9.529-20.271c-3.055,3.142-9.821,14.951-2.455,23.954,4.838,5.919,27.769,14.367,46.768,3.508a19.442,19.442,0,0,1-5.948,5.042c-10.947,6.328-28.719,6.328-39.695,0C212.415,465.717,209.682,461.9,209.36,458.015Z" transform="translate(-54.931 51.293)" fill="#7550fd" opacity="0.1"/>
      <path id="Path_207" data-name="Path 207" d="M228.855,436.6c-1.257,2.923,1.155,6.679,5.378,8.535s8.681,1.052,9.938-1.812-1.155-6.679-5.393-8.535S230.1,433.733,228.855,436.6Z" transform="translate(-46.088 50.189)" fill="#fff" opacity="0.5"/>
      <path id="Path_208" data-name="Path 208" d="M240.076,444.193a3.7,3.7,0,1,0,4.5-1.242A3.347,3.347,0,0,0,240.076,444.193Z" transform="translate(-41.071 54.227)" fill="#fff" opacity="0.5"/>
      <path id="Path_209" data-name="Path 209" d="M266.363,460.24a11.429,11.429,0,0,0-22.843,0v.643a5.846,5.846,0,0,0,3.347,4.385,17.889,17.889,0,0,0,16.164,0,5.846,5.846,0,0,0,3.332-4.385,2.5,2.5,0,0,0,0-.322,2.274,2.274,0,0,0,0-.322Z" transform="translate(-39.166 57.311)" fill="#7550fd"/>
      <path id="Path_210" data-name="Path 210" d="M266.363,460.24a11.429,11.429,0,0,0-22.843,0v.643a5.846,5.846,0,0,0,3.347,4.385,17.889,17.889,0,0,0,16.164,0,5.846,5.846,0,0,0,3.332-4.385,2.5,2.5,0,0,0,0-.322,2.274,2.274,0,0,0,0-.322Z" transform="translate(-39.166 57.311)" fill="#fff" opacity="0.9"/>
      <path id="Path_211" data-name="Path 211" d="M259.9,450.3h0a11.312,11.312,0,0,0-4.955-1.14,11.429,11.429,0,0,0-11.429,11.107v.643a5.846,5.846,0,0,0,3.347,4.385,15.317,15.317,0,0,0,5.729,1.783c-2.923-.512-4.881-3.814-3.961-7.468C249.688,455.328,253.97,449.2,259.9,450.3Z" transform="translate(-39.166 57.284)" fill="#fff" opacity="0.6"/>
      <path id="Path_212" data-name="Path 212" d="M266.059,460.011a2.5,2.5,0,0,0,0-.322,2.3,2.3,0,0,0,0-.321,11.371,11.371,0,0,0-3.873-8.258c1.242,1.286,4,6.094.994,9.748-1.973,2.411-11.327,5.846-19,1.462a8.052,8.052,0,0,0,2.426,2.061,17.889,17.889,0,0,0,16.164,0A5.846,5.846,0,0,0,266.059,460.011Z" transform="translate(-38.861 58.184)" fill="#7550fd" opacity="0.1"/>
      <path id="Path_213" data-name="Path 213" d="M253.273,451.284c.512,1.169-.468,2.718-2.192,3.478s-3.537.424-4.048-.731.468-2.733,2.192-3.493S252.762,450.115,253.273,451.284Z" transform="translate(-37.607 57.732)" fill="#fff" opacity="0.5"/>
      <path id="Path_214" data-name="Path 214" d="M247.572,454.371a1.461,1.461,0,1,1-1.827-.5,1.359,1.359,0,0,1,1.827.5Z" transform="translate(-38.527 59.381)" fill="#fff" opacity="0.5"/>
      <path id="Path_215" data-name="Path 215" d="M103.7,430.64a11.429,11.429,0,0,1,22.843,0v.643a5.846,5.846,0,0,1-3.347,4.385,17.8,17.8,0,0,1-16.164,0,5.846,5.846,0,0,1-3.332-4.385,2.368,2.368,0,0,1,0-.322,2.488,2.488,0,0,1,0-.322Z" transform="translate(-103.696 43.651)" fill="#7550fd"/>
      <path id="Path_216" data-name="Path 216" d="M103.7,430.64a11.429,11.429,0,0,1,22.843,0v.643a5.846,5.846,0,0,1-3.347,4.385,17.8,17.8,0,0,1-16.164,0,5.846,5.846,0,0,1-3.332-4.385,2.368,2.368,0,0,1,0-.322,2.488,2.488,0,0,1,0-.322Z" transform="translate(-103.696 43.651)" fill="#fff" opacity="0.2"/>
      <path id="Path_217" data-name="Path 217" d="M108.12,420.7h0a11.414,11.414,0,0,1,16.384,9.967v.643a5.846,5.846,0,0,1-3.347,4.385,15.33,15.33,0,0,1-5.729,1.8c2.923-.512,4.881-3.829,3.961-7.483C118.336,425.728,114.054,419.6,108.12,420.7Z" transform="translate(-101.655 43.623)" fill="#fff" opacity="0.5"/>
      <path id="Path_218" data-name="Path 218" d="M103.7,430.406a2.368,2.368,0,0,1,0-.322,2.487,2.487,0,0,1,0-.322,11.312,11.312,0,0,1,3.873-8.243c-1.242,1.271-4,6.08-.994,9.748,1.973,2.411,11.327,5.846,19,1.461a8.024,8.024,0,0,1-2.426,2.046,17.8,17.8,0,0,1-16.164,0,5.846,5.846,0,0,1-3.288-4.37Z" transform="translate(-103.696 44.528)" fill="#455a64" opacity="0.05"/>
      <path id="Path_219" data-name="Path 219" d="M111.633,421.68c-.512,1.169.468,2.733,2.192,3.478s3.537.438,4.048-.731-.468-2.718-2.192-3.478S112.144,420.525,111.633,421.68Z" transform="translate(-100.096 44.076)" fill="#fff" opacity="0.3"/>
      <path id="Path_220" data-name="Path 220" d="M116.2,424.786a1.462,1.462,0,1,0,1.827-.512,1.345,1.345,0,0,0-1.827.512Z" transform="translate(-98.041 45.72)" fill="#fff" opacity="0.3"/>
    </g>
    <g id="freepik--Stars--inject-1--inject-111" transform="translate(78.691 77.367)">
      <g id="freepik--stars--inject-1--inject-111-2" data-name="freepik--stars--inject-1--inject-111">
        <path id="Path_221" data-name="Path 221" d="M183.13,249.02a2.265,2.265,0,1,1-.663-1.617,2.28,2.28,0,0,1,.663,1.617Z" transform="translate(-3.919 14.155)" fill="#fff"/>
        <circle id="Ellipse_9" data-name="Ellipse 9" cx="2.28" cy="2.28" r="2.28" transform="translate(26.03 224.956)" fill="#fff"/>
        <path id="Path_222" data-name="Path 222" d="M209.91,105.87a2.28,2.28,0,1,1-2.28-2.28,2.28,2.28,0,0,1,2.28,2.28Z" transform="translate(8.44 -51.91)" fill="#fff"/>
        <path id="Path_223" data-name="Path 223" d="M63.63,151.785a2.28,2.28,0,1,1-2.265-2.265A2.28,2.28,0,0,1,63.63,151.785Z" transform="translate(-59.07 -30.713)" fill="#fff"/>
        <path id="Path_224" data-name="Path 224" d="M328.781,259.835a2.455,2.455,0,1,1-2.455-2.455A2.455,2.455,0,0,1,328.781,259.835Z" transform="translate(63.139 19.066)" fill="#fff"/>
        <path id="Path_225" data-name="Path 225" d="M332.7,262.388a1.228,1.228,0,1,1-1.228-1.228A1.228,1.228,0,0,1,332.7,262.388Z" transform="translate(66.078 20.81)" fill="#fff"/>
        <path id="Path_226" data-name="Path 226" d="M378.775,311.868a1.228,1.228,0,1,1-1.228-1.228A1.242,1.242,0,0,1,378.775,311.868Z" transform="translate(87.345 43.646)" fill="#fff"/>
        <path id="Path_227" data-name="Path 227" d="M376.821,319.1a2.455,2.455,0,1,1-2.455-2.441A2.455,2.455,0,0,1,376.821,319.1Z" transform="translate(85.31 46.424)" fill="#fff"/>
        <path id="Path_228" data-name="Path 228" d="M444.1,187.772a1.228,1.228,0,1,1-1.549.7,1.228,1.228,0,0,1,1.549-.7Z" transform="translate(117.87 -13.092)" fill="#fff"/>
        <path id="Path_229" data-name="Path 229" d="M450.061,192.886a2.441,2.441,0,1,1-1.88.022,2.455,2.455,0,0,1,1.88-.022Z" transform="translate(119.826 -10.781)" fill="#fff"/>
        <path id="Path_230" data-name="Path 230" d="M325.867,131.842a1.228,1.228,0,1,1-1.549.7A1.228,1.228,0,0,1,325.867,131.842Z" transform="translate(63.305 -38.904)" fill="#fff"/>
        <path id="Path_231" data-name="Path 231" d="M331.776,136.953a2.455,2.455,0,1,1-3.172,1.388A2.455,2.455,0,0,1,331.776,136.953Z" transform="translate(65.244 -36.59)" fill="#fff"/>
        <path id="Path_232" data-name="Path 232" d="M413.2,123.313a2.455,2.455,0,1,1-3.172,1.388,2.455,2.455,0,0,1,3.172-1.388Z" transform="translate(102.821 -42.885)" fill="#fff"/>
        <path id="Path_233" data-name="Path 233" d="M91.987,89.5a1.14,1.14,0,1,1-1.461.643A1.14,1.14,0,0,1,91.987,89.5Z" transform="translate(-44.59 -58.446)" fill="#fff"/>
        <path id="Path_234" data-name="Path 234" d="M97.465,94.247a2.28,2.28,0,1,1-2.923,1.286A2.28,2.28,0,0,1,97.465,94.247Z" transform="translate(-42.775 -56.291)" fill="#fff"/>
        <path id="Path_235" data-name="Path 235" d="M130.2,226.89a1.14,1.14,0,1,1-1.14-1.14A1.14,1.14,0,0,1,130.2,226.89Z" transform="translate(-27.295 4.468)" fill="#fff"/>
        <circle id="Ellipse_10" data-name="Ellipse 10" cx="2.28" cy="2.28" r="2.28" transform="translate(105.799 224.226)" fill="#fff"/>
        <g id="Group_2" data-name="Group 2" transform="translate(387.637 182.763)" opacity="0.5">
          <path id="Path_236" data-name="Path 236" d="M335.854,196.7a2.587,2.587,0,1,1-2.572-2.572,2.587,2.587,0,0,1,2.572,2.572Z" transform="translate(-321.355 -192.888)" fill="#fff"/>
          <path id="Path_237" data-name="Path 237" d="M329.969,201.2a1.535,1.535,0,1,1-1.535-1.535,1.462,1.462,0,0,1,1.535,1.535Z" transform="translate(-323.1 -190.336)" fill="#fff"/>
          <path id="Path_238" data-name="Path 238" d="M326.785,194.522a1.242,1.242,0,1,1-1.242-1.242A1.242,1.242,0,0,1,326.785,194.522Z" transform="translate(-324.3 -193.28)" fill="#fff"/>
        </g>
        <g id="Group_3" data-name="Group 3" transform="translate(329.746 24.934)" opacity="0.5">
          <path id="Path_239" data-name="Path 239" d="M296.265,88.712a2.572,2.572,0,1,1-2.572-2.572A2.572,2.572,0,0,1,296.265,88.712Z" transform="translate(-281.722 -84.898)" fill="#fff"/>
          <path id="Path_240" data-name="Path 240" d="M290.339,93.182a1.535,1.535,0,1,1-1.535-1.462,1.461,1.461,0,0,1,1.535,1.462Z" transform="translate(-283.499 -82.323)" fill="#fff"/>
          <path id="Path_241" data-name="Path 241" d="M287.175,86.532a1.242,1.242,0,1,1-1.242-1.242A1.242,1.242,0,0,1,287.175,86.532Z" transform="translate(-284.69 -85.29)" fill="#fff"/>
        </g>
        <g id="Group_4" data-name="Group 4" transform="translate(6.308 86.354)" opacity="0.5">
          <path id="Path_242" data-name="Path 242" d="M73.966,128.316a2.572,2.572,0,1,1-1.718-.982,2.572,2.572,0,0,1,1.718.982Z" transform="translate(-60.63 -127.315)" fill="#fff"/>
          <path id="Path_243" data-name="Path 243" d="M72.168,135.187a1.536,1.536,0,1,1-2.156-.27A1.536,1.536,0,0,1,72.168,135.187Z" transform="translate(-60.602 -123.955)" fill="#fff"/>
          <path id="Path_244" data-name="Path 244" d="M65.613,131.771a1.242,1.242,0,1,1-1.754-.219A1.257,1.257,0,0,1,65.613,131.771Z" transform="translate(-63.386 -125.479)" fill="#fff"/>
        </g>
        <g id="Group_5" data-name="Group 5" transform="translate(176.102 388.895)" opacity="0.5">
          <path id="Path_245" data-name="Path 245" d="M187.819,334.685a2.572,2.572,0,1,1-3.529.89A2.558,2.558,0,0,1,187.819,334.685Z" transform="translate(-177.549 -334.32)" fill="#fff"/>
          <path id="Path_246" data-name="Path 246" d="M188.736,341.629a1.54,1.54,0,1,1-2.112.533A1.54,1.54,0,0,1,188.736,341.629Z" transform="translate(-176.405 -331.048)" fill="#fff"/>
          <path id="Path_247" data-name="Path 247" d="M181.444,340.806a1.257,1.257,0,0,1,.424,1.71,1.242,1.242,0,1,1-.424-1.71Z" transform="translate(-179.563 -331.409)" fill="#fff"/>
        </g>
        <path id="Path_248" data-name="Path 248" d="M379.881,160.525a2.455,2.455,0,1,1-2.455-2.455,2.455,2.455,0,0,1,2.455,2.455Z" transform="translate(86.722 -26.767)" fill="#b1b574"/>
        <path id="Path_249" data-name="Path 249" d="M407.378,181.1l-4.808,1.666-1.359,4.911a.585.585,0,0,1-1.023.2l-3.069-4.063-5.086.219a.57.57,0,0,1-.5-.906l2.923-4.18-1.783-4.765a.585.585,0,0,1,.716-.76l4.867,1.462,3.975-3.186a.585.585,0,0,1,.935.453l.1,5.086,4.253,2.806a.57.57,0,0,1-.146,1.052Z" transform="translate(94.316 -20.528)" fill="#b1b574"/>
        <path id="Path_250" data-name="Path 250" d="M352.338,87.793l-4.823,1.666-1.359,4.911a.585.585,0,0,1-1.023.19L342.063,90.5l-5.086.234a.585.585,0,0,1-.5-.906l2.923-4.18-1.783-4.765a.585.585,0,0,1,.716-.76l4.867,1.462,3.975-3.171a.585.585,0,0,1,.95.438l.088,5.086,4.253,2.806a.585.585,0,0,1-.131,1.052Z" transform="translate(68.914 -63.59)" fill="#b1b574"/>
        <path id="Path_251" data-name="Path 251" d="M156.938,77.657l-4.808,1.666-1.359,4.911a.585.585,0,0,1-1.023.19l-3.069-4.063-5.086.234a.57.57,0,0,1-.5-.906l2.923-4.18-1.812-4.691a.585.585,0,0,1,.716-.76l4.867,1.462,3.99-3.171a.585.585,0,0,1,.935.438l.1,5.086,4.268,2.791a.585.585,0,0,1-.146.994Z" transform="translate(-21.266 -68.23)" fill="#b1b574"/>
        <circle id="Ellipse_11" data-name="Ellipse 11" cx="2.28" cy="2.28" r="2.28" transform="translate(132.895 154.263)" fill="#fff"/>
        <path id="Path_252" data-name="Path 252" d="M144.834,157.174l-1.944,4.706,2.777,4.268a.57.57,0,0,1-.526.892l-5.071-.38-3.2,3.961a.585.585,0,0,1-1.023-.234l-1.2-4.955-4.75-1.812a.585.585,0,0,1-.1-1.038l4.385-2.66.263-5.086a.57.57,0,0,1,.95-.409l3.873,3.288,4.925-1.315a.57.57,0,0,1,.643.775Z" transform="translate(-26.554 -28.516)" fill="#b1b574"/>
        <path id="Path_253" data-name="Path 253" d="M113.761,279.768l-4.238,2.835v5.086a.585.585,0,0,1-.935.453l-4-3.142-4.867,1.462A.585.585,0,0,1,99,285.7l1.768-4.779-2.923-4.151a.57.57,0,0,1,.5-.906l5.086.19,3.04-4.078a.57.57,0,0,1,1.023.19l1.462,4.9,4.823,1.637a.57.57,0,0,1-.015,1.067Z" transform="translate(-41.226 25.689)" fill="#b1b574"/>
      </g>
    </g>
    <g id="freepik--Meteorites--inject-1--inject-111" transform="translate(217.432 197.589)">
      <g id="freepik--meteorites--inject-1--inject-111-2" data-name="freepik--meteorites--inject-1--inject-111">
        <path id="Path_254" data-name="Path 254" d="M363.12,221.319a4.589,4.589,0,1,1,9.178,0c0,2.543-2.046,93.975-4.589,93.975S363.12,223.862,363.12,221.319Z" transform="translate(-57.489 -119.916)" fill="#7550fd"/>
        <path id="Path_255" data-name="Path 255" d="M364.06,220.885a3.215,3.215,0,1,1,3.215,3.215,3.215,3.215,0,0,1-3.215-3.215Z" transform="translate(-57.055 -119.483)" fill="#7550fd"/>
        <path id="Path_256" data-name="Path 256" d="M364.85,220.521a2.061,2.061,0,1,1,2.061,2.061A2.061,2.061,0,0,1,364.85,220.521Z" transform="translate(-56.69 -119.118)" fill="#fff"/>
        <path id="Path_257" data-name="Path 257" d="M154,283.571a2.441,2.441,0,1,1,4.881,0c0,1.345-1.082,50.086-2.441,50.086S154,284.915,154,283.571Z" transform="translate(-154 -90.195)" fill="#7550fd"/>
        <circle id="Ellipse_12" data-name="Ellipse 12" cx="1.71" cy="1.71" r="1.71" transform="translate(0.658 191.666)" fill="#7550fd"/>
        <path id="Path_258" data-name="Path 258" d="M154.87,283.146a1.1,1.1,0,1,1,1.1,1.1A1.1,1.1,0,0,1,154.87,283.146Z" transform="translate(-153.599 -89.77)" fill="#fff"/>
        <path id="Path_259" data-name="Path 259" d="M178.67,153.472a3.2,3.2,0,0,1,6.387,0c0,1.768-1.461,65.315-3.2,65.315S178.67,155.241,178.67,153.472Z" transform="translate(-142.614 -150.488)" fill="#7550fd"/>
        <path id="Path_260" data-name="Path 260" d="M179.33,153.236a2.236,2.236,0,1,1,2.222,2.236A2.236,2.236,0,0,1,179.33,153.236Z" transform="translate(-142.31 -150.252)" fill="#7550fd"/>
        <circle id="Ellipse_13" data-name="Ellipse 13" cx="1.432" cy="1.432" r="1.432" transform="translate(37.809 1.552)" fill="#fff"/>
      </g>
    </g>
  </g>
</svg>
